<?xml version="1.0" encoding="utf-8"?>
<!-- Generator: Adobe Illustrator 21.0.2, SVG Export Plug-In . SVG Version: 6.00 Build 0)  -->
<svg version="1.1" xmlns="http://www.w3.org/2000/svg" xmlns:xlink="http://www.w3.org/1999/xlink" x="0px" y="0px"
	 viewBox="0 0 260 260" style="enable-background:new 0 0 260 260;" xml:space="preserve">
<style type="text/css">
	.st0{fill:#C4ABA3;}
	.st1{opacity:0.41;}
	.st2{fill:url(#SVGID_1_);}
	.st3{fill:url(#SVGID_2_);}
	.st4{fill:#967248;}
	.st5{fill:#231F20;}
	.st6{fill:#FDD4C8;}
	.st7{opacity:0.32;fill:url(#SVGID_3_);enable-background:new    ;}
	.st8{opacity:0.31;fill:url(#SVGID_4_);enable-background:new    ;}
	.st9{opacity:0.31;fill:url(#SVGID_5_);enable-background:new    ;}
	.st10{opacity:0.58;}
	.st11{fill:url(#SVGID_6_);}
	.st12{fill:url(#SVGID_7_);}
	.st13{fill:#FFFFFF;}
	.st14{opacity:0.49;}
	.st15{fill:#FCE6E0;}
	.st16{fill:#E0C799;}
</style>
<g id="Layer_2">
	<g id="mouse">
		<g id="Layer_2_1_">
			<path class="st0" d="M46.7,22.7c-4.1,1.1-7.6,4.4-8.6,8.5c-2.1,7.1-3,12.5,3.1,17c4.5,3.1,10,4.7,15.3,4.7c0,0-6.4,18.2-5,32
				c1.2,13.6,3.6,26.9,16.1,28.7c12.5,1.8,18.9,1.8,23.3,1.4s18.9-2.3,24.7-10.3c5.8-8,3.3-20.8,1.4-29.1c-1.9-8.3-6.1-21-9.2-24.9
				l-3.1-3.9c0,0,8.3-0.8,11-5.6c2.7-4.8,4.4-8.7,4-13.1c-0.6-4.2-6.3-14.2-12.2-14.4c-4.9-0.4-9.7,2.1-12.2,6.2
				c-2,3.4-3.8,6.9-5.2,10.7c-3.5-0.5-7-0.6-10.5-0.3c-3.6,0.8-9.1,2.4-11,4.2c0,0-7.1-9-11.7-10.6C52,23,49.3,21.6,46.7,22.7z"/>
			<path d="M90.9,115.2c-3.7,0.3-9.8,0.5-23.3-1.4c-5.8-0.8-9.9-4.2-12.3-10.1c-2.3-5.4-3.2-12.3-3.8-19
				c-1.2-12.9,4.4-30.2,4.9-31.8L56,53c-5.4,0-10.6-1.6-14.9-4.6c-6.3-4.5-5.1-10.3-3.3-17.2c1.3-4.2,4.6-7.4,8.7-8.7
				c2.1-0.8,4.3-0.2,7.5,0.9l2.4,0.7c4.2,1.3,10.9,9.6,11.8,10.4c1.9-1.8,6.9-3.3,11-4.2c3.5-0.3,6.9-0.3,10.5,0.3
				c1.4-3.8,3.2-7.3,5.2-10.7c2.6-4.2,7.4-6.6,12.5-6.2c6.2,0.2,11.8,10.4,12.2,14.4c0.5,4-1,7.9-4,13.1c-1.5,2.3-3.8,3.9-6.5,4.6
				c-1.4,0.6-3,0.9-4.3,1l2.9,3.6c3.1,3.9,7.2,16.9,9.2,24.9c1.6,6.8,4.7,20.5-1.4,29.1C113.4,107.9,107.1,113.4,90.9,115.2z
				 M48,22.4c-0.5,0.1-0.9,0.2-1.4,0.4l0,0c-4.1,1.1-7.3,4.3-8.6,8.5c-2.1,6.9-3,12.5,3.1,17c4.3,3,9.6,4.6,14.7,4.6l0.5-0.1l0,0
				l0,0c0,0.2-6.2,18.4-4.9,31.8c0.8,6.6,1.5,13.6,3.8,18.8c2.6,5.9,6.7,9.1,12.3,9.9c13.7,2,19.6,1.7,23.3,1.4
				c4-0.5,8-1.1,11.8-2.2c6-2,10.4-4.5,12.8-8c6-8.4,2.7-22.4,1.1-28.9c-1.8-7.9-5.9-21-9-24.6l-3.1-3.9l0.2,0
				c1.5-0.1,2.9-0.5,4.5-1c2.5-0.8,5-2.2,6.5-4.4c3-5,4.4-8.9,4-12.9s-6.1-13.9-12.2-14.4c-4.9-0.4-9.7,2.1-12.2,6.2
				c-2,3.4-3.8,6.9-5,10.8l0,0l0,0c-3.5-0.5-7-0.6-10.5-0.3c-4,0.9-9.3,2.4-11,4.2l0,0l0,0c0,0-7.1-9-11.6-10.4L54.8,24
				C52.4,22.9,50.2,22.4,48,22.4z"/>
			<g class="st1">
				<g>
					
						<radialGradient id="SVGID_1_" cx="-115.8543" cy="1576.1559" r="11.7836" gradientTransform="matrix(0.9946 -0.1031 0.1031 0.9946 57.8139 -1549.6989)" gradientUnits="userSpaceOnUse">
						<stop  offset="0.37" style="stop-color:#FF8EA5"/>
						<stop  offset="1" style="stop-color:#FFCBD6"/>
					</radialGradient>
					<path class="st2" d="M115.5,29.4c0.7,7-3.2,13.1-8.8,13.6c-3.5,0.3-7.8-0.8-9.6-4.4c-1-2.4-1.6-4.8-1.7-7.2
						c-0.7-7,3.6-14.1,9.3-14.8c2.2-0.2,4.3,0,6.3,0.7C113.9,19.2,114.8,25.2,115.5,29.4z"/>
				</g>
			</g>
			<g class="st1">
				<g>
					
						<radialGradient id="SVGID_2_" cx="-1511.0081" cy="1270.196" r="12.1233" gradientTransform="matrix(0.516 -0.8567 0.8567 0.516 -256.8907 -1912.1626)" gradientUnits="userSpaceOnUse">
						<stop  offset="0.37" style="stop-color:#FF8EA5"/>
						<stop  offset="1" style="stop-color:#FFCBD6"/>
					</radialGradient>
					<path class="st3" d="M57.5,28.4c4.3,3.2,6.6,8.5,6.4,13.8c-0.2,1-0.6,2-1.2,2.7c-1.7,3.1-5.5,5.7-9.2,5.2
						c-2.5-0.5-4.8-1.6-6.9-2.9c-6.1-3.6-9.2-11.4-6.2-16.3c1-1.9,2.6-3.3,4.4-4.5C49,23.9,53.7,26.1,57.5,28.4z"/>
				</g>
			</g>
			<path class="st4" d="M92.9,76.8c-5.1-2.1-11-2.7-16.3-1c-1.8,1.6-2.8,3.9-2.4,6.4c0.6,4.2,1.1,11.2,5.4,13.3L92.9,76.8z"/>
			<path class="st5" d="M79.6,95.5L79.6,95.5c-3.9-2.1-4.8-8.1-5.3-12.5c0-0.2-0.1-0.7,0-0.9c-0.3-1.8,0.1-3.4,1-4.9
				c0.3-0.6,0.9-1.1,1.4-1.6l0,0c5.4-1.4,11.2-1.1,16.3,1l0,0l0,0L79.6,95.5z M76.6,75.5c-1.8,1.6-2.8,3.9-2.4,6.4
				c0,0.2,0.1,0.7,0,0.9c0.6,4.4,1.3,10.1,5.1,12.4l13.3-18.5C87.8,74.6,82,74.3,76.6,75.5L76.6,75.5z"/>
			<path class="st6" d="M102.1,112.8c1.9,1.3,4.3,2,6.6,2.2c2.8-0.3,4.6-2.7,4-3.9c-0.7-0.8-1.4-1.4-2.2-1.7
				C107.7,110.8,105.1,111.9,102.1,112.8z"/>
			<path d="M108.9,115.1L108.9,115.1c-2.6-0.1-4.9-1-6.8-2.3l0,0l0,0c2.8-0.9,5.6-2.1,8.2-3.4l0,0c1,0.4,1.7,1,2.2,1.7
				c0.3,0.5,0.2,1.1-0.1,1.5C111.7,114,110.5,115,108.9,115.1z M102.3,112.9c1.9,1.3,4.1,1.9,6.4,2.2l0.2,0c1.5-0.1,3-1.1,3.7-2.2
				c0.3-0.4,0.2-1,0.1-1.5c-0.7-0.8-1.4-1.4-2.2-1.7C107.7,110.8,105.1,111.9,102.3,112.9z"/>
			<path class="st6" d="M67.6,113.6c-1,0.7-1.7,1.8-1.5,2.9l1,0.4l0.2,1.3l0.9,0l0.9,0.8l1.2-0.4c0,0,4.8-0.5,6.6-4
				C73.6,114.6,70.7,114.2,67.6,113.6z"/>
			<path d="M69,119.2L69,119.2l-0.9-0.8l-0.9,0l-0.2-1.3l-1-0.4l0,0c-0.2-1.3,0.5-2.5,1.5-3.1l0,0c2.9,0.6,6,1,9,1l0,0l0,0
				c-1.8,3.5-6.4,4-6.6,4L69,119.2z M67.3,118.4l0.9,0l0.9,0.8l1.2-0.4c0,0,4.6-0.5,6.4-4c-3-0.2-6.1-0.6-9-1
				c-1,0.7-1.7,1.8-1.5,2.9l1,0.4L67.3,118.4z"/>
			<path class="st6" d="M117.9,100c2.5,1.4,5.1,2.1,8.1,2.5c3.2,0,10.5,0.3,12.5,3.9c2,3.6,4,9.8-1.1,13.5s-14.2,4.1-16.7,4.9
				c-2.5,0.8-11.9,2.5-14.2,5.2c-2.3,2.7,0.9,1,0.9,1c3.8-1.8,7.9-3.1,12.1-3.3c5.4-0.2,19.1-1,22.3-5c3-4.1,5.5-8.1,3.1-16.7
				c-2.5-8.7-14.6-8.4-14.6-8.4s-9.5-1.6-11.2-3.8L117.9,100z"/>
			<path d="M106,131.4c-0.2,0-0.5,0.1-0.4-0.1c-0.2-0.2,0.1-0.6,0.8-1.6c1.7-2,7.6-3.4,11.6-4.2c1.1-0.2,2-0.4,2.7-0.7
				c1.1-0.2,2.2-0.4,3.1-0.6c3.8-0.7,9.8-1.6,13.5-4.3c5.8-4.2,2.4-11.3,1.1-13.3c-2-3.6-9.1-3.8-12.3-3.9l0,0
				c-2.7-0.4-5.6-1.2-8.1-2.5l0,0l0,0l1.1-6.2l0,0c0.7,1,2.8,1.9,6.1,2.6c2.5,0.5,4.7,1,4.9,1c2.1,0,4.4,0.3,6.5,0.9
				c3.9,0.8,6.9,3.8,8.3,7.5c2.3,8.4,0,12.4-3.3,16.9c-3.2,4.3-17.8,4.9-22.3,5c-2.8,0.1-5.5,0.8-8.1,1.7c-1.4,0.6-2.8,0.9-4,1.7
				C106.9,131.2,106.4,131.3,106,131.4z M117.9,100c2.5,1.4,5.1,2.1,8.1,2.5l0,0c3.4,0.1,10.5,0.3,12.5,3.9
				c1.3,2.2,4.5,9.3-1.1,13.5c-3.8,2.6-9.5,3.6-13.5,4.3c-1.1,0.2-2.2,0.4-3.1,0.6c-0.7,0.1-1.6,0.5-2.7,0.7
				c-3.8,0.9-9.7,2.3-11.4,4.3c-0.8,0.9-0.9,1.3-0.7,1.4c0.2,0.2,1.3-0.2,1.6-0.3c1.2-0.6,2.6-1.2,4-1.7c2.6-1,5.2-1.5,8.1-1.7
				c4.3-0.2,19-0.7,22.1-5c3.2-4.3,5.6-8.3,3.3-16.7c-1.2-3.7-4.4-6.5-8.1-7.5c-2-0.6-4.3-0.9-6.5-0.9c-0.4-0.1-9.2-1.3-10.9-3.3
				L117.9,100z"/>
			
				<radialGradient id="SVGID_3_" cx="-105.0659" cy="1659.0546" r="19.5847" gradientTransform="matrix(0.9946 -0.1031 0.1031 0.9946 57.8139 -1549.6989)" gradientUnits="userSpaceOnUse">
				<stop  offset="0.37" style="stop-color:#FBCAC7"/>
				<stop  offset="0.67" style="stop-color:#FBD3C7"/>
				<stop  offset="0.87" style="stop-color:#BDBDBD"/>
				<stop  offset="1" style="stop-color:#858585"/>
			</radialGradient>
			<path class="st7" d="M117.9,100c2.5,1.4,5.1,2.1,8.1,2.5c3.2,0,10.5,0.3,12.5,3.9c2,3.6,4,9.8-1.1,13.5s-14.2,4.1-16.7,4.9
				c-2.5,0.8-11.9,2.5-14.2,5.2c-2.3,2.7,0.9,1,0.9,1c3.8-1.8,7.9-3.1,12.1-3.3c5.4-0.2,19.1-1,22.3-5c3-4.1,5.5-8.1,3.1-16.7
				c-2.5-8.7-14.6-8.4-14.6-8.4s-9.5-1.6-11.2-3.8L117.9,100z"/>
			
				<radialGradient id="SVGID_4_" cx="-158.3522" cy="1658.318" r="4.294" gradientTransform="matrix(0.9946 -0.1031 0.1031 0.9946 57.8139 -1549.6989)" gradientUnits="userSpaceOnUse">
				<stop  offset="0.33" style="stop-color:#FBB0C7"/>
				<stop  offset="1" style="stop-color:#858585"/>
			</radialGradient>
			<path class="st8" d="M67.6,113.6c-1,0.7-1.7,1.8-1.5,2.9l1,0.4l0.2,1.3l0.9,0l0.9,0.8l1.2-0.4c0,0,4.8-0.5,6.4-4
				C73.6,114.6,70.7,114.2,67.6,113.6z"/>
			
				<radialGradient id="SVGID_5_" cx="-121.9527" cy="1658.3895" r="4.1318" gradientTransform="matrix(0.9946 -0.1031 0.1031 0.9946 57.8139 -1549.6989)" gradientUnits="userSpaceOnUse">
				<stop  offset="0.33" style="stop-color:#FBB0C7"/>
				<stop  offset="1" style="stop-color:#858585"/>
			</radialGradient>
			<path class="st9" d="M102.5,113.1c1.9,1.3,4.1,1.9,6.2,1.9c2.8-0.3,4.6-2.7,4-3.9c-0.5-0.7-1.2-1.3-2-1.7
				C108.1,111.1,105.3,112.2,102.5,113.1z"/>
			<path class="st5" d="M64,42.6c-0.1-1.5-0.2-3.1-0.6-4.4c-0.3-1.6-0.7-2.9-1.2-4.3c-0.6-1.4-1.4-2.6-2.4-3.7
				c-0.5-0.5-1.1-1.1-1.6-1.4s-1.4-0.7-1.9-1C54.8,27,53.4,26.5,52,26c-1.4-0.5-2.9-0.6-4.4-0.5c-1.5,0.1-2.9,0.7-4,1.7
				c-0.5,0.5-1.1,1.1-1.6,1.6c-0.5,0.5-0.9,1.1-1.3,1.9c0.3-0.6,0.9-1.3,1.3-1.9c0.5-0.5,1.1-1.1,1.6-1.6c1.3-1,2.7-1.6,4-1.7
				c1.5-0.1,3,0,4.4,0.5c1.4,0.5,2.8,1,4.1,1.7c0.6,0.3,1.4,0.7,1.9,1s1.1,0.9,1.6,1.4c1.1,1.1,1.9,2.3,2.4,3.7
				C63.3,36.7,63.8,39.6,64,42.6z"/>
			<path class="st5" d="M66.2,32.8c0.5,0.5,1.2,1.3,1.8,1.9c0.4,0.3,0.5,0.7,0.9,1c0.4,0.3,0.5,0.7,0.6,1.2
				c-0.2-0.2-0.2-0.2-0.3-0.5l-0.3-0.5l-0.9-1C67.3,34.1,66.8,33.4,66.2,32.8z"/>
			<path class="st5" d="M90.7,28.9c-0.1,0.6-0.5,1.4-0.6,2l-0.4,1c-0.1,0.4-0.3,0.6-0.4,1c0.1-0.4,0.1-0.6,0.2-1
				c0.1-0.4,0.1-0.6,0.4-1C90,30.3,90.3,29.5,90.7,28.9z"/>
			<path class="st5" d="M80.9,61.4c-0.7,0.1-1.4-0.3-2-0.8c-0.2-0.2-0.1-0.5-0.1-0.7s0.3-0.4,0.7-0.5l0.2,0c0.5-0.1,1.3-0.2,2.4-0.1
				c0.5-0.1,0.7-0.1,0.8,0.2c0.2,0.2,0.1,0.5,0.1,0.7l0,0c-0.3,0.6-0.8,0.9-1.4,1.4C81.3,61.3,81.1,61.4,80.9,61.4z M79.6,59.4
				c-0.2,0.2-0.5,0.3-0.5,0.5s0.1,0.5,0.3,0.7c0.7,0.8,1.7,1.2,2.2,0.7c0.5-0.3,0.8-0.9,1.3-1.2c0,0,0.1-0.4-0.1-0.5
				c-0.2-0.2-0.4-0.3-0.8-0.2C80.9,59.3,80,59.3,79.6,59.4L79.6,59.4L79.6,59.4z"/>
			<g class="st10">
				
					<radialGradient id="SVGID_6_" cx="-143.1349" cy="1603.756" r="1.6351" gradientTransform="matrix(0.9946 -0.1031 0.1031 0.9946 57.8139 -1549.6989)" gradientUnits="userSpaceOnUse">
					<stop  offset="0.37" style="stop-color:#FF8EA5"/>
					<stop  offset="1" style="stop-color:#FFCBD6"/>
				</radialGradient>
				<path class="st11" d="M79.6,59.4c-0.2,0-1.2,0.4-0.5,1.2c0.7,0.8,1.7,1.2,2.4,0.7c0.5-0.3,0.8-0.9,1.3-1.2c0,0,0.4-1-0.7-0.8
					C80.9,59.3,79.6,59.2,79.6,59.4z"/>
				<path class="st5" d="M80.9,61.4c-0.7,0.1-1.4-0.3-2-0.8c-0.2-0.2-0.1-0.5-0.1-0.7s0.3-0.4,0.7-0.5l0.2,0
					c0.5-0.1,1.3-0.2,2.4-0.1c0.5-0.1,0.7-0.1,0.8,0.2c0.2,0.2,0.1,0.5,0.1,0.7l0,0c-0.3,0.6-0.8,0.9-1.4,1.4
					C81.3,61.3,81.1,61.4,80.9,61.4z M79.6,59.4c-0.2,0.2-0.5,0.3-0.5,0.5s0.1,0.5,0.3,0.7c0.7,0.8,1.7,1.2,2.2,0.7
					c0.5-0.3,0.8-0.9,1.3-1.2c0,0,0.1-0.4-0.1-0.5c-0.2-0.2-0.4-0.3-0.8-0.2C80.9,59.3,80,59.3,79.6,59.4L79.6,59.4L79.6,59.4z"/>
			</g>
			
				<radialGradient id="SVGID_7_" cx="-143.2966" cy="1605.947" r="0.7725" gradientTransform="matrix(0.9946 -0.1031 0.1031 0.9946 57.8139 -1549.6989)" gradientUnits="userSpaceOnUse">
				<stop  offset="0.37" style="stop-color:#FF6FA5"/>
				<stop  offset="1" style="stop-color:#FFCBD6"/>
			</radialGradient>
			<path class="st12" d="M80.9,61.4c0.1,0.7,0.1,1.5,0.2,2.2"/>
			<path class="st5" d="M80.9,61.4c0.1,0.7,0.1,1.5,0.2,2.2c-0.2-0.2-0.3-0.7-0.2-1.1C81,62.1,80.8,61.6,80.9,61.4z"/>
			<ellipse transform="matrix(0.9947 -0.1031 0.1031 0.9947 -4.9918 7.182)" class="st5" cx="67" cy="51.9" rx="2.1" ry="2.3"/>
			
				<ellipse transform="matrix(0.8098 -0.5867 0.5867 0.8098 -17.2456 49.5163)" class="st13" cx="67.8" cy="51.4" rx="0.4" ry="0.4"/>
			
				<ellipse transform="matrix(0.8098 -0.5867 0.5867 0.8098 -16.9145 49.1262)" class="st13" cx="67.3" cy="50.7" rx="0.2" ry="0.2"/>
			<ellipse transform="matrix(0.9947 -0.1031 0.1031 0.9947 -4.5635 9.9491)" class="st5" cx="93.9" cy="49.1" rx="2.1" ry="2.3"/>
			
				<ellipse transform="matrix(0.8098 -0.5867 0.5867 0.8098 -10.4757 64.816)" class="st13" cx="94.7" cy="48.6" rx="0.4" ry="0.4"/>
			<ellipse transform="matrix(0.811 -0.5851 0.5851 0.811 -10.2321 64.938)" class="st13" cx="95.4" cy="48.3" rx="0.2" ry="0.2"/>
			<g class="st14">
				<g>
					<ellipse transform="matrix(0.9947 -0.1031 0.1031 0.9947 -5.9018 9.9371)" class="st15" cx="93.1" cy="62" rx="5.7" ry="4.2"/>
				</g>
			</g>
			<g class="st14">
				<g>
					
						<ellipse transform="matrix(0.9947 -0.1031 0.1031 0.9947 -6.249 7.5182)" class="st15" cx="69.6" cy="64.2" rx="5.7" ry="4.2"/>
				</g>
			</g>
			<path class="st16" d="M92.9,76.8c0,0-14.5-0.4-15.7,2.1c-0.8,1.8-1,3.7-1,5.6c0,0,1.3,9.3,3.3,11c2,1.7,12.1-2.4,12.1-2.4
				c-0.7-1.7-0.1-3.7,1.6-4.4c0.5-0.1,1-0.4,1.6-0.3L92.9,76.8z"/>
			<path class="st5" d="M82.3,95.8c-0.9,0.2-1.9,0-2.7-0.4c-2-1.7-3.3-10.8-3.2-11.2c0-1.9,0.2-3.8,1-5.6c1.2-2.5,15.3-2.2,15.7-2.1
				l0,0l0,0l1.9,11.5l0,0c-1.1,0-2.2,0.4-2.9,1.3c-0.4,1-0.5,2.3-0.2,3.2l0,0l0,0C88.6,94.3,85.4,95.2,82.3,95.8z M82.8,77
				c-2.6,0.3-5.1,0.9-5.3,1.7c-0.8,1.8-1.2,3.8-1.2,5.6c0,0,1.3,9.3,3.3,11c2,1.7,10.9-2,11.9-2.5c-0.4-1.2-0.4-2.2,0.3-3.4
				c0.6-0.9,1.6-1.4,2.9-1.3l0,0l-1.7-11.3C89.5,76.7,86,76.9,82.8,77L82.8,77z"/>
			<path class="st0" d="M102,78.5c-0.6,0.9-1.4,1.6-2.2,2.3c-1.5,1-3.1,1.7-4.9,2c-0.7,0.1-0.8,0.9-2.2,1.1
				c-1.3,0.2-0.3-1.8-0.3-1.8s-0.8,0.7-1.3,0.2c-0.5-0.5,1.6-1.4,0.9-1.3s-0.9-0.8-0.4-1.2c1-0.4,1.9-0.9,3.1-1.3
				c1.5-1,2.6-2.2,3.4-3.8L102,78.5z"/>
			<path d="M92.8,84.3c-0.2,0-0.4-0.1-0.6-0.1c-0.4-0.3-0.2-1.1,0.1-1.5C92,83,91.4,82.9,91,82.6c-0.2,0-0.2-0.2-0.2-0.2
				c0-0.2,0.3-0.6,0.8-0.9l0.2-0.2l0,0c-0.2,0-0.6-0.1-0.8-0.4c-0.2-0.2-0.1-0.7,0.2-1c0.2-0.2,0.7-0.5,1-0.4
				c0.7-0.3,1.4-0.6,1.9-0.9c1.3-1,2.4-2.3,3.2-3.8l0.2,0c-0.8,1.6-1.9,2.8-3.4,3.8c-0.7,0.3-1.4,0.6-2.1,0.8
				c-0.2,0.2-0.7,0.3-1,0.4c-0.2,0.2-0.3,0.6-0.2,0.8c0.2,0.2,0.4,0.3,0.6,0.3l0.2,0c0,0.2,0,0.2-0.3,0.4s-0.7,0.5-0.8,0.7l0,0.2
				c0.5,0.5,1.3-0.2,1.3-0.2l0.3-0.4L92,82.2c-0.1,0.4-0.5,1.2-0.3,1.6C92.3,84,92.5,84,92.8,84.3c0.2-0.2,0.7-0.5,1.2-0.8
				c0.2-0.2,0.5-0.3,0.7-0.5c1.8-0.3,3.4-1,4.9-2c0.8-0.7,1.6-1.6,2.2-2.3l0.2,0c-0.6,0.9-1.4,1.6-2.2,2.3c-1.5,1.2-3.2,1.9-5.2,2.1
				c-0.2,0-0.5,0.1-0.7,0.3C93.8,83.8,93.3,84.2,92.8,84.3z"/>
			<path class="st0" d="M68.5,83.5c0.9,0.6,1.7,1,2.7,1.6c1.4,0.5,2.8,0.8,4.3,1.1c0.4,0.1,1.4,1.4,2.2,1.7c0.6,0.3,0.3-1.4-0.1-1.7
				c-0.4-0.3-0.3-0.5,0.2-0.8c0.5-0.3-0.2-1.1-0.4-1.2c-0.2,0-0.6-0.1-0.1-0.7c0.5-0.3,0.6-0.9,0.2-1c-1.1,0.2-2.3-0.1-3.4-0.3
				c-1.5-1.2-2.9-2.5-4.1-4.1L68.5,83.5z"/>
			<path d="M77.7,87.8L77.7,87.8c-0.6-0.1-0.9-0.6-1.3-0.9c-0.4-0.3-0.7-0.8-0.9-0.8c-1.4-0.3-2.9-0.6-4.3-1.1c-1-0.4-1.7-1-2.7-1.6
				l0-0.2c0.9,0.6,1.7,1,2.7,1.6c1.4,0.5,2.8,0.8,4.3,1.1c0.2,0,0.6,0.3,1.1,0.9C77,87.2,77.4,87.5,77.7,87.8
				C77.8,87.6,77.8,87.6,77.7,87.8c0.2-0.8,0.1-1.5-0.2-2c-0.3-0.5-0.3-0.7,0.2-1c0.2-0.2,0.3-0.4,0.1-0.4c-0.2-0.2-0.3-0.5-0.5-0.5
				c-0.2,0-0.4-0.1-0.4-0.3s0-0.2,0.3-0.6c0.5-0.1,0.5-0.5,0.4-0.8l-0.2-0.2L76.8,82c-0.7,0.5-1.6,0.3-2.6,0.1
				c-1.5-1.2-2.9-2.5-4.1-4.1l0.2-0.2c1.2,1.5,2.4,2.9,4.1,4.1c0.8,0.2,1.9,0.4,2.7,0.4l0.7-0.1c0.2,0,0.4,0.1,0.4,0.3
				c0.1,0.5-0.2,0.8-0.4,1s-0.2,0.2-0.3,0.4l0.2,0c0,0,0.6,0.3,0.7,0.6c0.2,0.2,0.1,0.5-0.1,0.6c-0.5,0.3-0.5,0.3-0.2,0.8
				C78.1,86.1,78.2,87.5,77.7,87.8C77.9,87.8,77.9,87.8,77.7,87.8z"/>
			<path d="M94.3,59.9c0.5-0.3,1-0.7,1.3-1c0.5-0.3,1-0.7,1.4-0.8c1-0.7,1.9-1.1,3.1-1.5l-1.4,0.8c-0.5,0.3-1,0.4-1.4,0.8
				C96.2,58.8,95.2,59.5,94.3,59.9z"/>
			<path d="M93.8,61.1l2.6-0.3l2.6-0.3l2.6-0.3l2.6-0.3l-2.6,0.3l-2.6,0.3l-2.6,0.3L93.8,61.1z"/>
			<path d="M94.6,62.6l2.3,0.3l2.3,0.3l2.3,0.3l1,0.2c0.4,0.1,0.8,0.2,1.1,0c-0.7,0.1-1.5-0.1-2.3-0.1l-2.3-0.3L96.6,63L94.6,62.6z"
				/>
			<path d="M66.6,62.9C65.3,63.1,64,63,62.7,63c-0.7,0.1-1.3-0.1-1.9-0.2c-0.6-0.1-1.3-0.1-1.9-0.4c0.4,0.1,0.6,0.1,1,0.2l1.1,0
				l1.9,0C64.1,62.8,65.3,62.9,66.6,62.9z"/>
			<path d="M67,64.3c-1.2,0.4-2.5,0.8-3.7,1.2l-1.8,0.5c-0.7,0.1-1.4,0.4-1.8,0.5l1.8-0.5l1.8-0.5C64.5,65.1,65.8,64.7,67,64.3z"/>
			<path d="M67.9,66.2c-1.2,0.6-2.6,1.2-3.8,1.6L62,68.6l-1,0.4c-0.2,0.2-0.7,0.3-1,0.4c0.5-0.3,1.2-0.8,1.7-0.9l1.9-0.9
				C65.3,67.2,66.5,66.8,67.9,66.2z"/>
			<path class="st5" d="M96.8,38.3c-1-2.6-1.7-5.3-1.8-7.9c0.1-0.4-0.1-0.7,0-1.1c0.1-0.4,0.1-0.6,0-1.1c0.1-0.4,0.1-0.6,0.2-1
				c0.1-0.4,0.1-0.6,0.2-1c0.3-1.2,0.8-2.6,1.4-3.8c0.7-1.1,1.3-2.3,2.4-3.4l0.3-0.4l0.3-0.4c0.2-0.2,0.5-0.5,0.8-0.7l0.5-0.3
				l0.5-0.3l0.5-0.1c0.2-0.2,0.2-0.2,0.5-0.1c0.2-0.2,0.7-0.3,0.9-0.2c0.5-0.1,0.7-0.1,1.1,0c0.7-0.1,1.3-0.2,1.9,0
				c0.7-0.1,1.3,0.1,2.1,0.2c0.6,0.1,1.2,0.3,1.8,0.6c-0.6-0.3-1.2-0.5-1.8-0.6s-1.2-0.3-2.1-0.2c-0.7,0.1-1.3-0.1-2.1,0
				c-0.4-0.1-0.7,0.1-1.1,0c-0.2,0.2-0.7,0.1-0.9,0.2c-0.2,0-0.2,0.2-0.5,0.1l-0.5,0.1l-0.5,0.3l-0.5,0.3c-0.2,0.2-0.5,0.3-0.8,0.7
				l-0.3,0.4l-0.3,0.4c-0.9,1.1-1.7,2-2.2,3.4c-0.7,1.1-1.2,2.5-1.4,3.8c-0.3,1.2-0.6,2.7-0.6,3.9c-0.1,1.3,0.1,2.6,0.5,4
				C95.9,35.8,96.2,37.1,96.8,38.3z"/>
		</g>
	</g>
</g>
<g id="Layer_1">
	
		<image style="overflow:visible;" width="256" height="192" xlink:href="../imgs/blue2.png"  transform="matrix(1.375 0 0 1.375 -46 13)">
	</image>
</g>
</svg>
