<?xml version="1.0" encoding="utf-8"?>
<!-- Generator: Adobe Illustrator 21.0.2, SVG Export Plug-In . SVG Version: 6.00 Build 0)  -->
<svg version="1.1" xmlns="http://www.w3.org/2000/svg" xmlns:xlink="http://www.w3.org/1999/xlink" x="0px" y="0px"
	 viewBox="0 0 260 260" style="enable-background:new 0 0 260 260;" xml:space="preserve">
<style type="text/css">
	.st0{fill:#C4ABA3;}
	.st1{opacity:0.41;}
	.st2{fill:url(#SVGID_1_);}
	.st3{fill:url(#SVGID_2_);}
	.st4{fill:#F28A00;}
	.st5{fill:#231F20;}
	.st6{fill:#FDD4C8;}
	.st7{opacity:0.32;fill:url(#SVGID_3_);enable-background:new    ;}
	.st8{opacity:0.31;fill:url(#SVGID_4_);enable-background:new    ;}
	.st9{opacity:0.31;fill:url(#SVGID_5_);enable-background:new    ;}
	.st10{opacity:0.58;}
	.st11{fill:url(#SVGID_6_);}
	.st12{fill:url(#SVGID_7_);}
	.st13{fill:#FFFFFF;}
	.st14{opacity:0.49;}
	.st15{fill:#FCE6E0;}
	.st16{fill:#FFB228;}
</style>
<g id="Layer_2">
	<g id="mouse">
		<g id="Layer_2_1_">
			<path class="st0" d="M11.7,49.2c-3,0.5-5.8,2.7-6.8,5.6c-2,5-3,8.9,1.2,12.5c3.1,2.5,6.9,4,10.8,4.4c0,0-5.8,12.8-5.7,23
				c0,9.9,0.9,19.8,9.9,21.9c9,2.1,13.7,2.5,16.9,2.6c3.2,0,13.9-0.4,18.6-5.9c4.7-5.5,3.7-14.9,2.9-21.1
				c-0.8-6.2-3.1-15.7-5.1-18.7l-2-3c0,0,6.1-0.1,8.4-3.4c2.3-3.3,3.8-6.1,3.8-9.3c-0.2-3.1-3.6-10.7-8-11.2
				c-3.5-0.6-7.2,0.9-9.3,3.7c-1.7,2.4-3.2,4.8-4.5,7.4c-2.5-0.6-5-0.9-7.6-0.9c-2.7,0.3-6.8,1.2-8.2,2.3c0,0-4.6-7-7.8-8.5
				C15.5,49.7,13.6,48.5,11.7,49.2z"/>
			<path d="M37.8,119.3c-2.7,0-7.1-0.2-16.9-2.6c-4.2-1-6.9-3.7-8.3-8.1c-1.3-4.1-1.6-9.1-1.5-14.1c0-9.5,5.1-21.7,5.6-22.8
				l-0.3,0.1c-3.9-0.4-7.6-1.8-10.5-4.3c-4.3-3.7-3.1-7.8-1.3-12.7c1.2-3,3.8-5.1,6.9-5.8c1.6-0.5,3.2,0.2,5.4,1.2l1.7,0.7
				c3,1.2,7.3,7.7,7.9,8.3c1.5-1.2,5.2-1.9,8.2-2.3c2.6,0,5.1,0.3,7.6,0.9c1.3-2.7,2.8-5.1,4.5-7.4c2.2-2.9,5.8-4.3,9.5-3.7
				c4.5,0.6,7.9,8.3,8,11.2c0.1,2.9-1.3,5.7-3.8,9.3c-1.3,1.5-3,2.6-5.1,3c-1.1,0.3-2.2,0.4-3.2,0.5l1.9,2.8c2,3,4.1,12.8,5.1,18.7
				c0.7,5,2.1,15.2-2.9,21.1C54.7,115.5,49.7,119.1,37.8,119.3z M12.7,49c-0.3,0.1-0.7,0.1-1,0.2l0,0c-3,0.5-5.6,2.6-6.8,5.6
				c-2,4.9-3,8.9,1.2,12.5c2.9,2.5,6.7,3.9,10.4,4.3l0.3-0.1l0,0l0,0c0,0.1-5.7,13-5.6,22.8c0.1,4.8,0.2,10,1.5,13.9
				c1.5,4.5,4.3,7.1,8.3,8c9.9,2.4,14.1,2.5,16.9,2.6c2.9-0.1,5.9-0.3,8.8-0.9c4.5-1,7.8-2.6,9.9-5c4.9-5.7,3.4-16.1,2.7-21
				c-0.8-5.8-2.9-15.6-5-18.5l-2-3l0.1,0c1.1,0,2.1-0.2,3.3-0.4c1.9-0.4,3.8-1.3,5-2.8c2.5-3.4,3.8-6.2,3.7-9.1
				c-0.1-2.9-3.5-10.5-8-11.2c-3.5-0.6-7.2,0.9-9.3,3.7c-1.7,2.4-3.2,4.8-4.4,7.5l0,0l0,0c-2.5-0.6-5-0.9-7.6-0.9
				c-3,0.4-6.9,1.1-8.2,2.3l0,0l0,0c0,0-4.6-7-7.7-8.3l-1.7-0.7C15.8,49.7,14.2,49.2,12.7,49z"/>
			<g class="st1">
				<g>
					
						<radialGradient id="SVGID_1_" cx="-165.0117" cy="1621.803" r="8.6039" gradientTransform="matrix(0.9999 -1.419963e-02 1.419963e-02 0.9999 195.6515 -1565.6898)" gradientUnits="userSpaceOnUse">
						<stop  offset="0.37" style="stop-color:#FF8EA5"/>
						<stop  offset="1" style="stop-color:#FFCBD6"/>
					</radialGradient>
					<path class="st2" d="M61.2,58.5c0,5.1-3.1,9.3-7.3,9.3c-2.6,0-5.6-1.1-6.7-3.8c-0.6-1.8-0.8-3.6-0.8-5.4c0-5.1,3.5-10,7.7-10.2
						c1.6,0,3.1,0.3,4.5,0.9C60.8,51,61.1,55.4,61.2,58.5z"/>
				</g>
			</g>
			<g class="st1">
				<g>
					
						<radialGradient id="SVGID_2_" cx="-1567.8135" cy="1269.6709" r="8.852" gradientTransform="matrix(0.5901 -0.8074 0.8074 0.5901 -85.5476 -1954.7219)" gradientUnits="userSpaceOnUse">
						<stop  offset="0.37" style="stop-color:#FF8EA5"/>
						<stop  offset="1" style="stop-color:#FFCBD6"/>
					</radialGradient>
					<path class="st3" d="M19.2,54c2.9,2.6,4.3,6.6,3.7,10.4c-0.2,0.7-0.6,1.4-1.1,1.9c-1.4,2.1-4.4,3.8-7,3.1
						C13,69,11.4,68,10,66.9c-4.2-3-6-8.9-3.5-12.3c0.9-1.3,2.1-2.2,3.5-3C13.3,50.2,16.5,52.1,19.2,54z"/>
				</g>
			</g>
			<path class="st4" d="M41.8,91.5c-3.6-1.9-7.8-2.7-11.8-1.8c-1.4,1-2.3,2.7-2.2,4.5c0.2,3.1,0.1,8.2,3,10.1L41.8,91.5z"/>
			<path class="st5" d="M30.8,104.2L30.8,104.2c-2.7-1.8-2.9-6.2-3.1-9.4c0-0.1,0-0.5,0-0.6c-0.1-1.3,0.3-2.5,1.1-3.5
				c0.3-0.4,0.7-0.7,1.1-1.1l0,0c4.1-0.7,8.2-0.1,11.8,1.8l0,0l0,0L30.8,104.2z M30,89.5c-1.4,1-2.3,2.7-2.2,4.5c0,0.1,0,0.5,0,0.6
				c0.1,3.2,0.3,7.5,2.9,9.4l10.9-12.6C38.2,89.6,34,89,30,89.5L30,89.5z"/>
			<path class="st6" d="M46.1,118.3c1.3,1,3,1.7,4.7,2.1c2.1,0,3.5-1.6,3.2-2.6c-0.5-0.6-1-1.1-1.5-1.4
				C50.3,117.2,48.3,117.9,46.1,118.3z"/>
			<path d="M50.9,120.4L50.9,120.4c-1.9-0.2-3.5-1.1-4.8-2.1l0,0l0,0c2.1-0.5,4.2-1.1,6.2-2l0,0c0.7,0.4,1.2,0.8,1.5,1.4
				c0.2,0.4,0.1,0.8-0.2,1.1C53.1,119.8,52,120.4,50.9,120.4z M46.3,118.4c1.3,1,2.9,1.7,4.5,2l0.1,0c1.1,0,2.3-0.6,2.8-1.4
				c0.2-0.2,0.2-0.7,0.2-1.1c-0.5-0.6-1-1.1-1.5-1.4C50.3,117.2,48.3,117.9,46.3,118.4z"/>
			<path class="st6" d="M21,116.6c-0.8,0.4-1.3,1.2-1.3,2l0.7,0.4l0,1l0.6,0l0.6,0.7l0.9-0.2c0,0,3.5,0,5.1-2.5
				C25.3,117.8,23.2,117.3,21,116.6z"/>
			<path d="M21.6,120.8L21.6,120.8l-0.6-0.7l-0.6,0l0-1l-0.7-0.4l0,0c0-1,0.5-1.8,1.3-2.2l0,0c2.1,0.6,4.3,1.1,6.5,1.3l0,0l0,0
				c-1.5,2.4-4.9,2.5-5.1,2.5L21.6,120.8z M20.4,120.1l0.6,0l0.6,0.7l0.9-0.2c0,0,3.4-0.1,4.9-2.5c-2.1-0.3-4.4-0.9-6.5-1.3
				c-0.8,0.4-1.3,1.2-1.3,2l0.7,0.4L20.4,120.1z"/>
			<path class="st6" d="M58.4,110c1.7,1.2,3.6,1.9,5.7,2.4c2.3,0.2,7.6,0.9,8.8,3.6c1.2,2.8,2.2,7.4-1.7,9.7
				c-3.9,2.3-10.6,2.1-12.5,2.5c-1.9,0.4-8.8,1-10.6,2.9c-1.8,1.8,0.6,0.8,0.6,0.8c2.9-1,6-1.7,9-1.6c3.9,0.2,13.9,0.5,16.5-2.2
				c2.4-2.8,4.6-5.5,3.3-12c-1.2-6.5-10-7.1-10-7.1s-6.8-1.8-7.9-3.5L58.4,110z"/>
			<path d="M47.7,132.1c-0.1,0-0.3,0.1-0.3-0.1c-0.1-0.2,0.1-0.4,0.6-1.1c1.4-1.3,5.7-1.9,8.7-2.3c0.8-0.1,1.5-0.2,2-0.3
				c0.8-0.1,1.6-0.1,2.3-0.3c2.8-0.3,7.2-0.5,10.1-2.2c4.5-2.6,2.5-8.1,1.6-9.6c-1.2-2.8-6.3-3.4-8.7-3.6l0,0c-2-0.4-4-1.2-5.7-2.4
				l0,0l0,0l1.2-4.4l0,0c0.4,0.8,1.9,1.5,4.3,2.3c1.8,0.5,3.4,1,3.5,1.1c1.6,0.2,3.2,0.5,4.6,1.1c2.8,0.8,4.8,3.2,5.5,6
				c1.1,6.3-0.8,9-3.5,12.1c-2.6,2.9-13.2,2.4-16.5,2.2c-2-0.1-4.1,0.2-6,0.7c-1.1,0.3-2.1,0.5-3,1C48.4,132,48,132,47.7,132.1z
				 M58.4,110c1.7,1.2,3.6,1.9,5.7,2.4l0,0c2.5,0.3,7.6,0.9,8.8,3.6c0.8,1.7,2.7,7.1-1.7,9.7c-2.9,1.7-7.2,2-10.1,2.2
				c-0.8,0.1-1.6,0.1-2.3,0.3c-0.5,0-1.2,0.3-2,0.3c-2.9,0.4-7.2,1-8.6,2.4c-0.7,0.6-0.8,0.9-0.6,0.9c0.1,0.2,1,0,1.2-0.1
				c0.9-0.4,2-0.7,3-1c1.9-0.5,3.9-0.7,6-0.7c3.2,0.2,13.9,0.7,16.4-2.2c2.6-2.9,4.6-5.7,3.5-11.9c-0.6-2.7-2.8-5-5.4-6
				c-1.4-0.6-3.1-0.9-4.6-1.1c-0.3-0.1-6.6-1.5-7.7-3.1L58.4,110z"/>
			
				<radialGradient id="SVGID_3_" cx="-157.1344" cy="1682.3326" r="14.3" gradientTransform="matrix(0.9999 -1.419963e-02 1.419963e-02 0.9999 195.6515 -1565.6898)" gradientUnits="userSpaceOnUse">
				<stop  offset="0.37" style="stop-color:#FBCAC7"/>
				<stop  offset="0.67" style="stop-color:#FBD3C7"/>
				<stop  offset="0.87" style="stop-color:#BDBDBD"/>
				<stop  offset="1" style="stop-color:#858585"/>
			</radialGradient>
			<path class="st7" d="M58.4,110c1.7,1.2,3.6,1.9,5.7,2.4c2.3,0.2,7.6,0.9,8.8,3.6c1.2,2.8,2.2,7.4-1.7,9.7
				c-3.9,2.3-10.6,2.1-12.5,2.5c-1.9,0.4-8.8,1-10.6,2.9c-1.8,1.8,0.6,0.8,0.6,0.8c2.9-1,6-1.7,9-1.6c3.9,0.2,13.9,0.5,16.5-2.2
				c2.4-2.8,4.6-5.5,3.3-12c-1.2-6.5-10-7.1-10-7.1s-6.8-1.8-7.9-3.5L58.4,110z"/>
			
				<radialGradient id="SVGID_4_" cx="-196.0421" cy="1681.7948" r="3.1353" gradientTransform="matrix(0.9999 -1.419963e-02 1.419963e-02 0.9999 195.6515 -1565.6898)" gradientUnits="userSpaceOnUse">
				<stop  offset="0.33" style="stop-color:#FBB0C7"/>
				<stop  offset="1" style="stop-color:#858585"/>
			</radialGradient>
			<path class="st8" d="M21,116.6c-0.8,0.4-1.3,1.2-1.3,2l0.7,0.4l0,1l0.6,0l0.6,0.7l0.9-0.2c0,0,3.5,0,4.9-2.5
				C25.3,117.8,23.2,117.3,21,116.6z"/>
			
				<radialGradient id="SVGID_5_" cx="-169.4646" cy="1681.847" r="3.0169" gradientTransform="matrix(0.9999 -1.419963e-02 1.419963e-02 0.9999 195.6515 -1565.6898)" gradientUnits="userSpaceOnUse">
				<stop  offset="0.33" style="stop-color:#FBB0C7"/>
				<stop  offset="1" style="stop-color:#858585"/>
			</radialGradient>
			<path class="st9" d="M46.4,118.6c1.3,1,2.9,1.7,4.4,1.8c2.1,0,3.5-1.6,3.2-2.6c-0.3-0.6-0.8-1-1.3-1.4
				C50.6,117.4,48.4,118.1,46.4,118.6z"/>
			<path class="st5" d="M22.9,64.8c0-1.1,0-2.2-0.1-3.2c-0.1-1.2-0.3-2.2-0.6-3.2c-0.3-1.1-0.8-2-1.5-2.9c-0.4-0.4-0.7-0.9-1.1-1.1
				c-0.4-0.3-0.9-0.6-1.3-0.9c-0.9-0.6-1.9-1.1-2.9-1.5c-1-0.5-2.1-0.6-3.2-0.6c-1.1,0-2.2,0.3-3,1c-0.4,0.4-0.9,0.7-1.3,1.1
				c-0.4,0.4-0.7,0.7-1,1.3c0.3-0.4,0.8-0.9,1-1.3c0.4-0.4,0.9-0.7,1.3-1.1c1-0.7,2.1-1,3-1c1.1,0,2.2,0.2,3.2,0.6
				c1,0.5,2,0.9,2.9,1.5c0.4,0.3,0.9,0.6,1.3,0.9c0.4,0.3,0.7,0.7,1.1,1.1c0.7,0.9,1.2,1.8,1.5,2.9C22.8,60.4,23,62.6,22.9,64.8z"/>
			<path class="st5" d="M25.2,57.8c0.4,0.4,0.8,1,1.2,1.5c0.2,0.2,0.3,0.6,0.6,0.8c0.2,0.2,0.3,0.6,0.4,0.9
				c-0.1-0.2-0.1-0.2-0.2-0.4l-0.2-0.4l-0.6-0.8C25.9,58.8,25.6,58.2,25.2,57.8z"/>
			<path class="st5" d="M43.2,56.5c-0.1,0.4-0.5,1-0.6,1.4l-0.4,0.7c-0.1,0.3-0.3,0.4-0.4,0.7c0.1-0.3,0.1-0.4,0.2-0.7
				c0.1-0.3,0.1-0.4,0.4-0.7C42.6,57.5,43,56.9,43.2,56.5z"/>
			<path class="st5" d="M34,79.5c-0.5,0-1-0.3-1.4-0.7c-0.1-0.2-0.1-0.3,0-0.5s0.2-0.2,0.6-0.3l0.1,0c0.3-0.1,1,0,1.7,0
				c0.3-0.1,0.5,0,0.6,0.2c0.1,0.2,0.1,0.3,0,0.5l0,0c-0.3,0.4-0.7,0.6-1.1,1C34.4,79.5,34.2,79.6,34,79.5z M33.2,78
				c-0.2,0.1-0.4,0.2-0.4,0.4s0.1,0.3,0.2,0.5c0.5,0.6,1.1,1,1.6,0.6c0.4-0.2,0.7-0.6,1-0.8c0,0,0.1-0.3-0.1-0.3
				c-0.1-0.2-0.2-0.2-0.6-0.2C34.2,78,33.5,78,33.2,78L33.2,78L33.2,78z"/>
			<g class="st10">
				
					<radialGradient id="SVGID_6_" cx="-184.931" cy="1641.9556" r="1.1939" gradientTransform="matrix(0.9999 -1.419963e-02 1.419963e-02 0.9999 195.6515 -1565.6898)" gradientUnits="userSpaceOnUse">
					<stop  offset="0.37" style="stop-color:#FF8EA5"/>
					<stop  offset="1" style="stop-color:#FFCBD6"/>
				</radialGradient>
				<path class="st11" d="M33.2,78c-0.1,0-0.9,0.2-0.4,0.8s1.1,1,1.7,0.7c0.4-0.2,0.7-0.6,1-0.8c0,0,0.4-0.7-0.5-0.6
					C34.2,78,33.2,77.9,33.2,78z"/>
				<path class="st5" d="M34,79.5c-0.5,0-1-0.3-1.4-0.7c-0.1-0.2-0.1-0.3,0-0.5s0.2-0.2,0.6-0.3l0.1,0c0.3-0.1,1,0,1.7,0
					c0.3-0.1,0.5,0,0.6,0.2c0.1,0.2,0.1,0.3,0,0.5l0,0c-0.3,0.4-0.7,0.6-1.1,1C34.4,79.5,34.2,79.6,34,79.5z M33.2,78
					c-0.2,0.1-0.4,0.2-0.4,0.4s0.1,0.3,0.2,0.5c0.5,0.6,1.1,1,1.6,0.6c0.4-0.2,0.7-0.6,1-0.8c0,0,0.1-0.3-0.1-0.3
					c-0.1-0.2-0.2-0.2-0.6-0.2C34.2,78,33.5,78,33.2,78L33.2,78L33.2,78z"/>
			</g>
			
				<radialGradient id="SVGID_7_" cx="-185.0491" cy="1643.5554" r="0.5641" gradientTransform="matrix(0.9999 -1.419963e-02 1.419963e-02 0.9999 195.6515 -1565.6898)" gradientUnits="userSpaceOnUse">
				<stop  offset="0.37" style="stop-color:#FF6FA5"/>
				<stop  offset="1" style="stop-color:#FFCBD6"/>
			</radialGradient>
			<path class="st12" d="M34,79.5c0,0.5,0,1.1,0,1.6"/>
			<path class="st5" d="M34,79.5c0,0.5,0,1.1,0,1.6c-0.1-0.2-0.2-0.5-0.1-0.8C34,80,34,79.7,34,79.5z"/>
			
				<ellipse transform="matrix(0.9999 -1.420017e-02 1.420017e-02 0.9999 -1.0156 0.3553)" class="st5" cx="24.5" cy="71.7" rx="1.5" ry="1.7"/>
			
				<ellipse transform="matrix(0.8588 -0.5123 0.5123 0.8588 -33.0195 22.9476)" class="st13" cx="25.1" cy="71.4" rx="0.3" ry="0.3"/>
			
				<ellipse transform="matrix(0.8588 -0.5123 0.5123 0.8588 -32.7803 22.7321)" class="st13" cx="24.9" cy="70.8" rx="0.2" ry="0.2"/>
			
				<ellipse transform="matrix(0.9999 -1.420017e-02 1.420017e-02 0.9999 -1.01 0.6364)" class="st5" cx="44.3" cy="71.4" rx="1.5" ry="1.7"/>
			
				<ellipse transform="matrix(0.8588 -0.5123 0.5123 0.8588 -30.0812 33.0546)" class="st13" cx="44.9" cy="71.1" rx="0.3" ry="0.3"/>
			<ellipse transform="matrix(0.8598 -0.5106 0.5106 0.8598 -29.8615 33.135)" class="st13" cx="45.4" cy="71" rx="0.2" ry="0.2"/>
			<g class="st14">
				<g>
					
						<ellipse transform="matrix(0.9999 -1.420017e-02 1.420017e-02 0.9999 -1.1431 0.6173)" class="st15" cx="42.9" cy="80.8" rx="4.1" ry="3.1"/>
				</g>
			</g>
			<g class="st14">
				<g>
					
						<ellipse transform="matrix(0.9999 -1.420017e-02 1.420017e-02 0.9999 -1.1452 0.372)" class="st15" cx="25.6" cy="80.8" rx="4.1" ry="3.1"/>
				</g>
			</g>
			<path class="st16" d="M41.8,91.5c0,0-10.5-1.3-11.5,0.5c-0.7,1.2-0.9,2.6-1.1,4c0,0,0.3,6.8,1.7,8.2c1.3,1.4,8.9-1,8.9-1
				c-0.4-1.2,0.2-2.7,1.4-3.1c0.3-0.1,0.7-0.3,1.2-0.1L41.8,91.5z"/>
			<path class="st5" d="M32.8,104.7c-0.7,0.1-1.4-0.1-2-0.4c-1.3-1.4-1.7-8.1-1.6-8.3c0.1-1.4,0.4-2.8,1.1-4
				c1-1.8,11.2-0.6,11.5-0.5l0,0l0,0l0.6,8.5l0,0c-0.8-0.1-1.6,0.1-2.2,0.8c-0.4,0.7-0.5,1.6-0.4,2.3l0,0l0,0
				C37.5,104,35.1,104.4,32.8,104.7z M34.4,91c-1.9,0.1-3.8,0.3-4,0.9c-0.7,1.2-1.1,2.7-1.2,4c0,0,0.3,6.8,1.7,8.2
				c1.3,1.4,8.1-0.8,8.8-1c-0.2-0.9-0.1-1.6,0.4-2.4c0.5-0.6,1.2-0.9,2.2-0.8l0,0l-0.5-8.3C39.3,91.2,36.8,91.1,34.4,91L34.4,91z"/>
			<path class="st0" d="M48.3,93.3c-0.5,0.6-1.1,1.1-1.8,1.6c-1.1,0.6-2.4,1-3.7,1.1c-0.5,0-0.7,0.6-1.6,0.6c-1,0-0.1-1.3-0.1-1.3
				s-0.6,0.5-1,0c-0.4-0.4,1.2-0.9,0.8-0.9s-0.6-0.7-0.2-0.9c0.7-0.3,1.4-0.5,2.3-0.7c1.1-0.6,2-1.5,2.7-2.5L48.3,93.3z"/>
			<path d="M41.2,97c-0.1,0-0.3-0.1-0.4-0.1c-0.2-0.2-0.1-0.8,0.2-1.1c-0.2,0.2-0.7,0.1-0.9-0.1c-0.1,0-0.1-0.2-0.1-0.2
				c0-0.1,0.3-0.4,0.7-0.6l0.2-0.1l0,0c-0.1,0-0.4-0.1-0.5-0.3c-0.1-0.2,0-0.5,0.2-0.7c0.2-0.1,0.6-0.3,0.7-0.3
				c0.5-0.2,1.1-0.3,1.4-0.5c1-0.7,1.9-1.5,2.5-2.6l0.1,0c-0.6,1.1-1.5,1.9-2.7,2.5c-0.5,0.2-1.1,0.3-1.6,0.5
				c-0.2,0.1-0.5,0.2-0.7,0.3c-0.2,0.1-0.3,0.4-0.2,0.6s0.2,0.2,0.4,0.3l0.1,0c0,0.1,0,0.1-0.2,0.2c-0.2,0.1-0.6,0.3-0.6,0.5l0,0.1
				c0.4,0.4,1,0,1,0l0.2-0.2l-0.2,0.2c-0.1,0.3-0.4,0.8-0.4,1.2C40.8,96.7,41,96.7,41.2,97c0.2-0.1,0.6-0.3,1-0.5
				c0.2-0.1,0.4-0.2,0.6-0.3c1.3-0.1,2.6-0.5,3.7-1.1c0.6-0.5,1.3-1.1,1.8-1.6l0.1,0c-0.5,0.6-1.1,1.1-1.8,1.6
				c-1.2,0.8-2.4,1.2-3.9,1.2c-0.1,0-0.3,0.1-0.5,0.2C41.9,96.7,41.6,96.9,41.2,97z"/>
			<path class="st0" d="M23.6,94.8c0.6,0.5,1.2,0.8,1.8,1.4c1,0.5,2,0.8,3,1.1c0.3,0.1,1,1.1,1.5,1.4c0.4,0.3,0.3-1,0.1-1.3
				c-0.2-0.2-0.2-0.4,0.2-0.6c0.4-0.2-0.1-0.8-0.2-0.9c-0.1,0-0.4-0.1,0-0.5c0.4-0.2,0.5-0.6,0.2-0.7c-0.8,0.1-1.7-0.2-2.4-0.4
				c-1-0.9-1.9-2-2.7-3.2L23.6,94.8z"/>
			<path d="M30,98.5L30,98.5c-0.4-0.1-0.6-0.5-0.9-0.8c-0.2-0.2-0.5-0.6-0.6-0.7c-1-0.3-2.1-0.6-3-1.1c-0.7-0.4-1.2-0.8-1.8-1.4
				l0-0.1c0.6,0.5,1.2,0.8,1.8,1.4c1,0.5,2,0.8,3,1.1c0.1,0,0.4,0.3,0.7,0.7C29.5,98,29.8,98.3,30,98.5C30.1,98.4,30.1,98.4,30,98.5
				c0.2-0.6,0.2-1.1,0-1.5c-0.2-0.4-0.2-0.5,0.2-0.7c0.2-0.1,0.2-0.2,0.1-0.3c-0.1-0.2-0.2-0.4-0.4-0.4c-0.1,0-0.3-0.1-0.2-0.2
				c0-0.1,0-0.1,0.3-0.4c0.3-0.1,0.4-0.4,0.3-0.5l-0.1-0.2l-0.5,0c-0.6,0.3-1.2,0.1-1.9-0.1c-1-0.9-1.9-2-2.7-3.2l0.2-0.1
				c0.8,1.2,1.6,2.2,2.7,3.2c0.6,0.2,1.3,0.4,2,0.4l0.5,0c0.1,0,0.3,0.1,0.2,0.2c0.1,0.3-0.2,0.6-0.4,0.7c-0.2,0.1-0.2,0.1-0.2,0.2
				l0.1,0c0,0,0.4,0.3,0.5,0.5s0.1,0.3-0.1,0.4c-0.4,0.2-0.4,0.2-0.2,0.6C30.4,97.3,30.4,98.3,30,98.5C30.2,98.6,30.2,98.6,30,98.5z
				"/>
			<path d="M43.9,79.3c0.4-0.2,0.8-0.4,1-0.7c0.4-0.2,0.8-0.4,1.1-0.5c0.8-0.4,1.5-0.7,2.4-0.9l-1.1,0.5c-0.4,0.2-0.7,0.3-1.1,0.5
				C45.3,78.7,44.6,79.1,43.9,79.3z"/>
			<path d="M43.4,80.2l1.9-0.1l1.9-0.1l1.9-0.1l1.9-0.1L49.3,80l-1.9,0.1l-1.9,0.1L43.4,80.2z"/>
			<path d="M43.9,81.3l1.7,0.3l1.7,0.3l1.7,0.3l0.7,0.2c0.3,0.1,0.6,0.2,0.8,0.1c-0.5,0-1.1-0.2-1.7-0.2L47,82.1l-1.7-0.3L43.9,81.3
				z"/>
			<path d="M23.5,79.7c-1,0-1.9-0.1-2.8-0.2c-0.5,0-0.9-0.1-1.4-0.3c-0.4-0.1-0.9-0.1-1.3-0.4c0.3,0.1,0.4,0.1,0.7,0.2l0.8,0.1
				l1.4,0.1C21.7,79.5,22.6,79.6,23.5,79.7z"/>
			<path d="M23.7,80.7c-0.9,0.2-1.9,0.4-2.7,0.6l-1.4,0.2c-0.5,0-1,0.2-1.4,0.2l1.4-0.2l1.4-0.2C21.8,81.1,22.8,81,23.7,80.7z"/>
			<path d="M24.2,82.2c-0.9,0.4-2,0.7-2.8,0.9l-1.6,0.5l-0.7,0.3c-0.2,0.1-0.5,0.2-0.7,0.3c0.4-0.2,1-0.5,1.3-0.6l1.4-0.5
				C22.3,82.7,23.2,82.5,24.2,82.2z"/>
			<path class="st5" d="M47.1,63.8c-0.5-1.9-0.9-4-0.8-5.8c0.1-0.3,0-0.5,0.1-0.8s0.1-0.4,0.1-0.8c0.1-0.3,0.1-0.4,0.2-0.7
				c0.1-0.3,0.1-0.4,0.2-0.7c0.3-0.9,0.7-1.9,1.3-2.7c0.6-0.8,1.1-1.6,2-2.3l0.2-0.2l0.2-0.2c0.2-0.1,0.4-0.4,0.6-0.5l0.4-0.2
				l0.4-0.2l0.3-0.1c0.2-0.1,0.2-0.1,0.3-0.1c0.2-0.1,0.5-0.2,0.7-0.1c0.3-0.1,0.5,0,0.8,0.1c0.5,0,1,0,1.4,0.1
				c0.5,0,0.9,0.1,1.5,0.3c0.4,0.1,0.9,0.3,1.3,0.5c-0.4-0.3-0.8-0.4-1.3-0.5s-0.9-0.3-1.5-0.3c-0.5,0-0.9-0.1-1.6-0.2
				c-0.3-0.1-0.5,0-0.8-0.1c-0.2,0.1-0.5,0-0.7,0.1c-0.1,0-0.2,0.1-0.3,0.1l-0.3,0.1l-0.4,0.2L51.1,49c-0.2,0.1-0.4,0.2-0.6,0.5
				l-0.2,0.2L50.1,50c-0.7,0.7-1.4,1.3-1.8,2.3c-0.6,0.8-1,1.8-1.3,2.7s-0.6,1.9-0.7,2.8c-0.1,0.9-0.1,1.9,0.1,2.9
				C46.6,61.9,46.8,62.9,47.1,63.8z"/>
		</g>
	</g>
</g>
<g id="Layer_1">
	
		<image style="overflow:visible;" width="640" height="426" xlink:href="../imgs/cheddar.png"  transform="matrix(0.4624 0 0 0.4624 -18.9437 34)">
	</image>
</g>
</svg>
