<?xml version="1.0" encoding="utf-8"?>
<!-- Generator: Adobe Illustrator 21.0.2, SVG Export Plug-In . SVG Version: 6.00 Build 0)  -->
<svg version="1.1" xmlns="http://www.w3.org/2000/svg" xmlns:xlink="http://www.w3.org/1999/xlink" x="0px" y="0px"
	 viewBox="0 0 260 260" style="enable-background:new 0 0 260 260;" xml:space="preserve">
<style type="text/css">
	.st0{fill:#C4ABA3;}
	.st1{opacity:0.41;}
	.st2{fill:url(#SVGID_1_);}
	.st3{fill:url(#SVGID_2_);}
	.st4{fill:#967248;}
	.st5{fill:#231F20;}
	.st6{fill:#FDD4C8;}
	.st7{opacity:0.32;fill:url(#SVGID_3_);enable-background:new    ;}
	.st8{opacity:0.31;fill:url(#SVGID_4_);enable-background:new    ;}
	.st9{opacity:0.31;fill:url(#SVGID_5_);enable-background:new    ;}
	.st10{opacity:0.58;}
	.st11{fill:url(#SVGID_6_);}
	.st12{fill:url(#SVGID_7_);}
	.st13{fill:#FFFFFF;}
	.st14{opacity:0.49;}
	.st15{fill:#FCE6E0;}
	.st16{fill:#E0C799;}
</style>
<g id="mouse_1_">
	<g id="mouse">
		<g id="Layer_2_1_">
			<path class="st0" d="M50.7,19.7c-4.1,1.1-7.6,4.4-8.6,8.5c-2.1,7.1-3,12.5,3.1,17c4.5,3.1,10,4.7,15.3,4.7c0,0-6.4,18.2-5,32
				c1.2,13.6,3.6,26.9,16.1,28.7c12.5,1.8,18.9,1.8,23.3,1.4c4.4-0.4,18.9-2.3,24.7-10.3c5.8-8,3.3-20.8,1.4-29.1s-6.1-21-9.2-24.9
				l-3.1-3.9c0,0,8.3-0.8,11-5.6c2.7-4.8,4.4-8.7,4-13.1c-0.6-4.2-6.3-14.2-12.2-14.4c-4.9-0.4-9.7,2.1-12.2,6.2
				c-2,3.4-3.8,6.9-5.2,10.7c-3.5-0.5-7-0.6-10.5-0.3c-3.6,0.8-9.1,2.4-11,4.2c0,0-7.1-9-11.7-10.6C56,19.9,53.3,18.5,50.7,19.7z"/>
			<path d="M94.9,112.1c-3.7,0.3-9.8,0.5-23.3-1.4c-5.8-0.8-9.9-4.2-12.3-10.1c-2.3-5.4-3.2-12.3-3.8-19
				c-1.2-12.9,4.4-30.2,4.9-31.8L60,49.9c-5.4,0-10.6-1.6-14.9-4.6C38.8,40.8,40,35,41.8,28.1c1.3-4.2,4.6-7.4,8.7-8.7
				c2.1-0.8,4.3-0.2,7.5,0.9l2.4,0.7c4.2,1.3,10.9,9.6,11.8,10.4c1.9-1.8,6.9-3.3,11-4.2c3.5-0.3,6.9-0.3,10.5,0.3
				c1.4-3.8,3.2-7.3,5.2-10.7c2.6-4.2,7.4-6.6,12.5-6.2c6.2,0.2,11.8,10.4,12.2,14.4c0.5,4-1,7.9-4,13.1c-1.5,2.3-3.8,3.9-6.5,4.6
				c-1.4,0.6-3,0.9-4.3,1l2.9,3.6c3.1,3.9,7.2,16.9,9.2,24.9c1.6,6.8,4.7,20.5-1.4,29.1C117.5,104.8,111.2,110.4,94.9,112.1z
				 M52.1,19.3c-0.5,0.1-0.9,0.2-1.4,0.4l0,0c-4.1,1.1-7.3,4.3-8.6,8.5c-2.1,6.9-3,12.5,3.1,17c4.3,3,9.6,4.6,14.7,4.6l0.5-0.1l0,0
				l0,0c0,0.2-6.2,18.4-4.9,31.8c0.8,6.6,1.5,13.6,3.8,18.8c2.6,5.9,6.7,9.1,12.3,9.9c13.7,2,19.6,1.7,23.3,1.4
				c4-0.5,8-1.1,11.8-2.2c6-2,10.4-4.5,12.8-8c6-8.4,2.7-22.4,1.1-28.9c-1.8-7.9-5.9-21-9-24.6l-3.1-3.9l0.2,0
				c1.5-0.1,2.9-0.5,4.5-1c2.5-0.8,5-2.2,6.5-4.4c3-5,4.4-8.9,4-12.9c-0.5-4-6.1-13.9-12.2-14.4c-4.9-0.4-9.7,2.1-12.2,6.2
				c-2,3.4-3.8,6.9-5,10.8l0,0l0,0c-3.5-0.5-7-0.6-10.5-0.3c-4,0.9-9.3,2.4-11,4.2l0,0l0,0c0,0-7.1-9-11.6-10.4l-2.4-0.7
				C56.5,19.8,54.2,19.3,52.1,19.3z"/>
			<g class="st1">
				<g>
					
						<radialGradient id="SVGID_1_" cx="-111.5463" cy="1573.5171" r="11.7836" gradientTransform="matrix(0.9946 -0.1031 0.1031 0.9946 57.8139 -1549.6989)" gradientUnits="userSpaceOnUse">
						<stop  offset="0.37" style="stop-color:#FF8EA5"/>
						<stop  offset="1" style="stop-color:#FFCBD6"/>
					</radialGradient>
					<path class="st2" d="M119.5,26.3c0.7,7-3.2,13.1-8.8,13.6c-3.5,0.3-7.8-0.8-9.6-4.4c-1-2.4-1.6-4.8-1.7-7.2
						c-0.7-7,3.6-14.1,9.3-14.8c2.2-0.2,4.3,0,6.3,0.7C117.9,16.1,118.8,22.1,119.5,26.3z"/>
				</g>
			</g>
			<g class="st1">
				<g>
					
						<radialGradient id="SVGID_2_" cx="-1506.3091" cy="1272.0502" r="12.1233" gradientTransform="matrix(0.516 -0.8567 0.8567 0.516 -256.8907 -1912.1626)" gradientUnits="userSpaceOnUse">
						<stop  offset="0.37" style="stop-color:#FF8EA5"/>
						<stop  offset="1" style="stop-color:#FFCBD6"/>
					</radialGradient>
					<path class="st3" d="M61.5,25.4c4.3,3.2,6.6,8.5,6.4,13.8c-0.2,1-0.6,2-1.2,2.7c-1.7,3.1-5.5,5.7-9.2,5.2
						c-2.5-0.5-4.8-1.6-6.9-2.9c-6.1-3.6-9.2-11.4-6.2-16.3c1-1.9,2.6-3.3,4.4-4.5C53,20.8,57.7,23.1,61.5,25.4z"/>
				</g>
			</g>
			<path class="st4" d="M96.9,73.7c-5.1-2.1-11-2.7-16.3-1c-1.8,1.6-2.8,3.9-2.4,6.4c0.6,4.2,1.1,11.2,5.4,13.3L96.9,73.7z"/>
			<path class="st5" d="M83.6,92.4L83.6,92.4c-3.9-2.1-4.8-8.1-5.3-12.5c0-0.2-0.1-0.7,0-0.9c-0.3-1.8,0.1-3.4,1-4.9
				c0.3-0.6,0.9-1.1,1.4-1.6l0,0c5.4-1.4,11.2-1.1,16.3,1l0,0l0,0L83.6,92.4z M80.7,72.5c-1.8,1.6-2.8,3.9-2.4,6.4
				c0,0.2,0.1,0.7,0,0.9c0.6,4.4,1.3,10.1,5.1,12.4l13.3-18.5C91.8,71.6,86.1,71.2,80.7,72.5L80.7,72.5z"/>
			<path class="st6" d="M106.1,109.8c1.9,1.3,4.3,2,6.6,2.2c2.8-0.3,4.6-2.7,4-3.9c-0.7-0.8-1.4-1.4-2.2-1.7
				C111.7,107.7,109.1,108.9,106.1,109.8z"/>
			<path d="M113,112L113,112c-2.6-0.1-4.9-1-6.8-2.3l0,0l0,0c2.8-0.9,5.6-2.1,8.2-3.4l0,0c1,0.4,1.7,1,2.2,1.7
				c0.3,0.5,0.2,1.1-0.1,1.5C115.8,110.9,114.5,111.9,113,112z M106.3,109.8c1.9,1.3,4.1,1.9,6.4,2.2l0.2,0c1.5-0.1,3-1.1,3.7-2.2
				c0.3-0.4,0.2-1,0.1-1.5c-0.7-0.8-1.4-1.4-2.2-1.7C111.7,107.7,109.1,108.9,106.3,109.8z"/>
			<path class="st6" d="M71.6,110.5c-1,0.7-1.7,1.8-1.5,2.9l1,0.4l0.2,1.3l0.9,0l0.9,0.8l1.2-0.4c0,0,4.8-0.5,6.6-4
				C77.7,111.5,74.7,111.1,71.6,110.5z"/>
			<path d="M73,116.2L73,116.2l-0.9-0.8l-0.9,0l-0.2-1.3l-1-0.4l0,0c-0.2-1.3,0.5-2.5,1.5-3.1l0,0c2.9,0.6,6,1,9,1l0,0l0,0
				c-1.8,3.5-6.4,4-6.6,4L73,116.2z M71.3,115.4l0.9,0l0.9,0.8l1.2-0.4c0,0,4.6-0.5,6.4-4c-3-0.2-6.1-0.6-9-1
				c-1,0.7-1.7,1.8-1.5,2.9l1,0.4L71.3,115.4z"/>
			<path class="st6" d="M121.9,97c2.5,1.4,5.1,2.1,8.1,2.5c3.2,0,10.5,0.3,12.5,3.9c2,3.6,4,9.8-1.1,13.5s-14.2,4.1-16.7,4.9
				c-2.5,0.8-11.9,2.5-14.2,5.2c-2.3,2.7,0.9,1,0.9,1c3.8-1.8,7.9-3.1,12.1-3.3c5.4-0.2,19.1-1,22.3-5c3-4.1,5.5-8.1,3.1-16.7
				c-2.5-8.7-14.6-8.4-14.6-8.4s-9.5-1.6-11.2-3.8L121.9,97z"/>
			<path d="M110,128.4c-0.2,0-0.5,0.1-0.4-0.1c-0.2-0.2,0.1-0.6,0.8-1.6c1.7-2,7.6-3.4,11.6-4.2c1.1-0.2,2-0.4,2.7-0.7
				c1.1-0.2,2.2-0.4,3.1-0.6c3.8-0.7,9.8-1.6,13.5-4.3c5.8-4.2,2.4-11.3,1.1-13.3c-2-3.6-9.1-3.8-12.3-3.9l0,0
				c-2.7-0.4-5.6-1.2-8.1-2.5l0,0l0,0l1.1-6.2l0,0c0.7,1,2.8,1.9,6.1,2.6c2.5,0.5,4.7,1,4.9,1c2.1,0,4.4,0.3,6.5,0.9
				c3.9,0.8,6.9,3.8,8.3,7.5c2.3,8.4,0,12.4-3.3,16.9c-3.2,4.3-17.8,4.9-22.3,5c-2.8,0.1-5.5,0.8-8.1,1.7c-1.4,0.6-2.8,0.9-4,1.7
				C110.9,128.1,110.4,128.2,110,128.4z M121.9,97c2.5,1.4,5.1,2.1,8.1,2.5l0,0c3.4,0.1,10.5,0.3,12.5,3.9c1.3,2.2,4.5,9.3-1.1,13.5
				c-3.8,2.6-9.5,3.6-13.5,4.3c-1.1,0.2-2.2,0.4-3.1,0.6c-0.7,0.1-1.6,0.5-2.7,0.7c-3.8,0.9-9.7,2.3-11.4,4.3
				c-0.8,0.9-0.9,1.3-0.7,1.4c0.2,0.2,1.3-0.2,1.6-0.3c1.2-0.6,2.6-1.2,4-1.7c2.6-1,5.2-1.5,8.1-1.7c4.3-0.2,19-0.7,22.1-5
				c3.2-4.3,5.6-8.3,3.3-16.7c-1.2-3.7-4.4-6.5-8.1-7.5c-2-0.6-4.3-0.9-6.5-0.9c-0.4-0.1-9.2-1.3-10.9-3.3L121.9,97z"/>
			
				<radialGradient id="SVGID_3_" cx="-100.7578" cy="1656.4158" r="19.5847" gradientTransform="matrix(0.9946 -0.1031 0.1031 0.9946 57.8139 -1549.6989)" gradientUnits="userSpaceOnUse">
				<stop  offset="0.37" style="stop-color:#FBCAC7"/>
				<stop  offset="0.67" style="stop-color:#FBD3C7"/>
				<stop  offset="0.87" style="stop-color:#BDBDBD"/>
				<stop  offset="1" style="stop-color:#858585"/>
			</radialGradient>
			<path class="st7" d="M121.9,97c2.5,1.4,5.1,2.1,8.1,2.5c3.2,0,10.5,0.3,12.5,3.9c2,3.6,4,9.8-1.1,13.5s-14.2,4.1-16.7,4.9
				c-2.5,0.8-11.9,2.5-14.2,5.2c-2.3,2.7,0.9,1,0.9,1c3.8-1.8,7.9-3.1,12.1-3.3c5.4-0.2,19.1-1,22.3-5c3-4.1,5.5-8.1,3.1-16.7
				c-2.5-8.7-14.6-8.4-14.6-8.4s-9.5-1.6-11.2-3.8L121.9,97z"/>
			
				<radialGradient id="SVGID_4_" cx="-154.0441" cy="1655.6792" r="4.294" gradientTransform="matrix(0.9946 -0.1031 0.1031 0.9946 57.8139 -1549.6989)" gradientUnits="userSpaceOnUse">
				<stop  offset="0.33" style="stop-color:#FBB0C7"/>
				<stop  offset="1" style="stop-color:#858585"/>
			</radialGradient>
			<path class="st8" d="M71.6,110.5c-1,0.7-1.7,1.8-1.5,2.9l1,0.4l0.2,1.3l0.9,0l0.9,0.8l1.2-0.4c0,0,4.8-0.5,6.4-4
				C77.7,111.5,74.7,111.1,71.6,110.5z"/>
			
				<radialGradient id="SVGID_5_" cx="-117.6446" cy="1655.7507" r="4.1318" gradientTransform="matrix(0.9946 -0.1031 0.1031 0.9946 57.8139 -1549.6989)" gradientUnits="userSpaceOnUse">
				<stop  offset="0.33" style="stop-color:#FBB0C7"/>
				<stop  offset="1" style="stop-color:#858585"/>
			</radialGradient>
			<path class="st9" d="M106.5,110c1.9,1.3,4.1,1.9,6.2,1.9c2.8-0.3,4.6-2.7,4-3.9c-0.5-0.7-1.2-1.3-2-1.7
				C112.1,108,109.3,109.1,106.5,110z"/>
			<path class="st5" d="M68,39.6c-0.1-1.5-0.2-3.1-0.6-4.4c-0.3-1.6-0.7-2.9-1.2-4.3c-0.6-1.4-1.4-2.6-2.4-3.7
				c-0.5-0.5-1.1-1.1-1.6-1.4c-0.6-0.3-1.4-0.7-1.9-1c-1.4-0.7-2.7-1.2-4.1-1.7c-1.4-0.5-2.9-0.6-4.4-0.5c-1.5,0.1-2.9,0.7-4,1.7
				c-0.5,0.5-1.1,1.1-1.6,1.6c-0.5,0.5-0.9,1.1-1.3,1.9c0.3-0.6,0.9-1.3,1.3-1.9c0.5-0.5,1.1-1.1,1.6-1.6c1.3-1,2.7-1.6,4-1.7
				c1.5-0.1,3,0,4.4,0.5s2.8,1,4.1,1.7c0.6,0.3,1.4,0.7,1.9,1c0.6,0.3,1.1,0.9,1.6,1.4c1.1,1.1,1.9,2.3,2.4,3.7
				C67.3,33.6,67.8,36.5,68,39.6z"/>
			<path class="st5" d="M70.3,29.8c0.5,0.5,1.2,1.3,1.8,1.9c0.4,0.3,0.5,0.7,0.9,1c0.4,0.3,0.5,0.7,0.6,1.2
				c-0.2-0.2-0.2-0.2-0.3-0.5l-0.3-0.5l-0.9-1C71.3,31,70.8,30.3,70.3,29.8z"/>
			<path class="st5" d="M94.7,25.8c-0.1,0.6-0.5,1.4-0.6,2l-0.4,1c-0.1,0.4-0.3,0.6-0.4,1c0.1-0.4,0.1-0.6,0.2-1
				c0.1-0.4,0.1-0.6,0.4-1C94,27.2,94.3,26.4,94.7,25.8z"/>
			<path class="st5" d="M84.9,58.3c-0.7,0.1-1.4-0.3-2-0.8c-0.2-0.2-0.1-0.5-0.1-0.7c0-0.2,0.3-0.4,0.7-0.5l0.2,0
				c0.5-0.1,1.3-0.2,2.4-0.1c0.5-0.1,0.7-0.1,0.8,0.2c0.2,0.2,0.1,0.5,0.1,0.7l0,0c-0.3,0.6-0.8,0.9-1.4,1.4
				C85.3,58.2,85.1,58.4,84.9,58.3z M83.6,56.3c-0.2,0.2-0.5,0.3-0.5,0.5c0,0.2,0.1,0.5,0.3,0.7c0.7,0.8,1.7,1.2,2.2,0.7
				c0.5-0.3,0.8-0.9,1.3-1.2c0,0,0.1-0.4-0.1-0.5c-0.2-0.2-0.4-0.3-0.8-0.2C84.9,56.2,84,56.2,83.6,56.3L83.6,56.3L83.6,56.3z"/>
			<g class="st10">
				
					<radialGradient id="SVGID_6_" cx="-138.8269" cy="1601.1172" r="1.6351" gradientTransform="matrix(0.9946 -0.1031 0.1031 0.9946 57.8139 -1549.6989)" gradientUnits="userSpaceOnUse">
					<stop  offset="0.37" style="stop-color:#FF8EA5"/>
					<stop  offset="1" style="stop-color:#FFCBD6"/>
				</radialGradient>
				<path class="st11" d="M83.6,56.3c-0.2,0-1.2,0.4-0.5,1.2c0.7,0.8,1.7,1.2,2.4,0.7c0.5-0.3,0.8-0.9,1.3-1.2c0,0,0.4-1-0.7-0.8
					C84.9,56.2,83.6,56.1,83.6,56.3z"/>
				<path class="st5" d="M84.9,58.3c-0.7,0.1-1.4-0.3-2-0.8c-0.2-0.2-0.1-0.5-0.1-0.7c0-0.2,0.3-0.4,0.7-0.5l0.2,0
					c0.5-0.1,1.3-0.2,2.4-0.1c0.5-0.1,0.7-0.1,0.8,0.2c0.2,0.2,0.1,0.5,0.1,0.7l0,0c-0.3,0.6-0.8,0.9-1.4,1.4
					C85.3,58.2,85.1,58.4,84.9,58.3z M83.6,56.3c-0.2,0.2-0.5,0.3-0.5,0.5c0,0.2,0.1,0.5,0.3,0.7c0.7,0.8,1.7,1.2,2.2,0.7
					c0.5-0.3,0.8-0.9,1.3-1.2c0,0,0.1-0.4-0.1-0.5c-0.2-0.2-0.4-0.3-0.8-0.2C84.9,56.2,84,56.2,83.6,56.3L83.6,56.3L83.6,56.3z"/>
			</g>
			
				<radialGradient id="SVGID_7_" cx="-138.9886" cy="1603.3082" r="0.7725" gradientTransform="matrix(0.9946 -0.1031 0.1031 0.9946 57.8139 -1549.6989)" gradientUnits="userSpaceOnUse">
				<stop  offset="0.37" style="stop-color:#FF6FA5"/>
				<stop  offset="1" style="stop-color:#FFCBD6"/>
			</radialGradient>
			<path class="st12" d="M84.9,58.3c0.1,0.7,0.1,1.5,0.2,2.2"/>
			<path class="st5" d="M84.9,58.3c0.1,0.7,0.1,1.5,0.2,2.2c-0.2-0.2-0.3-0.7-0.2-1.1C85,59,84.8,58.5,84.9,58.3z"/>
			<ellipse transform="matrix(0.9947 -0.1031 0.1031 0.9947 -4.6539 7.5794)" class="st5" cx="71" cy="48.8" rx="2.1" ry="2.3"/>
			
				<ellipse transform="matrix(0.8098 -0.5867 0.5867 0.8098 -14.6819 51.2869)" class="st13" cx="71.8" cy="48.3" rx="0.4" ry="0.4"/>
			
				<ellipse transform="matrix(0.8098 -0.5867 0.5867 0.8098 -14.3508 50.8968)" class="st13" cx="71.3" cy="47.6" rx="0.2" ry="0.2"/>
			<ellipse transform="matrix(0.9947 -0.1031 0.1031 0.9947 -4.2256 10.3466)" class="st5" cx="97.9" cy="46" rx="2.1" ry="2.3"/>
			<ellipse transform="matrix(0.8098 -0.5867 0.5867 0.8098 -7.912 66.5866)" class="st13" cx="98.7" cy="45.5" rx="0.4" ry="0.4"/>
			<ellipse transform="matrix(0.811 -0.5851 0.5851 0.811 -7.6781 66.7057)" class="st13" cx="99.4" cy="45.2" rx="0.2" ry="0.2"/>
			<g class="st14">
				<g>
					
						<ellipse transform="matrix(0.9947 -0.1031 0.1031 0.9947 -5.5639 10.3346)" class="st15" cx="97.2" cy="59" rx="5.7" ry="4.2"/>
				</g>
			</g>
			<g class="st14">
				<g>
					
						<ellipse transform="matrix(0.9947 -0.1031 0.1031 0.9947 -5.9112 7.9156)" class="st15" cx="73.6" cy="61.1" rx="5.7" ry="4.2"/>
				</g>
			</g>
			<path class="st16" d="M96.9,73.7c0,0-14.5-0.4-15.7,2.1c-0.8,1.8-1,3.7-1,5.6c0,0,1.3,9.3,3.3,11c2,1.7,12.1-2.4,12.1-2.4
				c-0.7-1.7-0.1-3.7,1.6-4.4c0.5-0.1,1-0.4,1.6-0.3L96.9,73.7z"/>
			<path class="st5" d="M86.3,92.7c-0.9,0.2-1.9,0-2.7-0.4c-2-1.7-3.3-10.8-3.2-11.2c0-1.9,0.2-3.8,1-5.6c1.2-2.5,15.3-2.2,15.7-2.1
				l0,0l0,0l1.9,11.5l0,0c-1.1,0-2.2,0.4-2.9,1.3c-0.4,1-0.5,2.3-0.2,3.2l0,0l0,0C92.6,91.3,89.4,92.1,86.3,92.7z M86.8,74
				c-2.6,0.3-5.1,0.9-5.3,1.7c-0.8,1.8-1.2,3.8-1.2,5.6c0,0,1.3,9.3,3.3,11c2,1.7,10.9-2,11.9-2.5c-0.4-1.2-0.4-2.2,0.3-3.4
				c0.6-0.9,1.6-1.4,2.9-1.3l0,0l-1.7-11.3C93.5,73.7,90,73.8,86.8,74L86.8,74z"/>
			<path class="st0" d="M106,75.4c-0.6,0.9-1.4,1.6-2.2,2.3c-1.5,1-3.1,1.7-4.9,2c-0.7,0.1-0.8,0.9-2.2,1.1
				c-1.3,0.2-0.3-1.8-0.3-1.8s-0.8,0.7-1.3,0.2c-0.5-0.5,1.6-1.4,0.9-1.3s-0.9-0.8-0.4-1.2c1-0.4,1.9-0.9,3.1-1.3
				c1.5-1,2.6-2.2,3.4-3.8L106,75.4z"/>
			<path d="M96.9,81.2c-0.2,0-0.4-0.1-0.6-0.1c-0.4-0.3-0.2-1.1,0.1-1.5c-0.3,0.4-0.9,0.2-1.3-0.1c-0.2,0-0.2-0.2-0.2-0.2
				c0-0.2,0.3-0.6,0.8-0.9l0.2-0.2l0,0c-0.2,0-0.6-0.1-0.8-0.4c-0.2-0.2-0.1-0.7,0.2-1c0.2-0.2,0.7-0.5,1-0.4
				c0.7-0.3,1.4-0.6,1.9-0.9c1.3-1,2.4-2.3,3.2-3.8l0.2,0c-0.8,1.6-1.9,2.8-3.4,3.8c-0.7,0.3-1.4,0.6-2.1,0.8
				c-0.2,0.2-0.7,0.3-1,0.4C95,77,94.9,77.4,95,77.6s0.4,0.3,0.6,0.3l0.2,0c0,0.2,0,0.2-0.3,0.4c-0.2,0.2-0.7,0.5-0.8,0.7l0,0.2
				c0.5,0.5,1.3-0.2,1.3-0.2l0.3-0.4L96,79.1c-0.1,0.4-0.5,1.2-0.3,1.6C96.3,80.9,96.5,80.9,96.9,81.2c0.2-0.2,0.7-0.5,1.2-0.8
				c0.2-0.2,0.5-0.3,0.7-0.5c1.8-0.3,3.4-1,4.9-2c0.8-0.7,1.6-1.6,2.2-2.3l0.2,0c-0.6,0.9-1.4,1.6-2.2,2.3c-1.5,1.2-3.2,1.9-5.2,2.1
				c-0.2,0-0.5,0.1-0.7,0.3C97.8,80.8,97.3,81.1,96.9,81.2z"/>
			<path class="st0" d="M72.6,80.4c0.9,0.6,1.7,1,2.7,1.6c1.4,0.5,2.8,0.8,4.3,1.1c0.4,0.1,1.4,1.4,2.2,1.7c0.6,0.3,0.3-1.4-0.1-1.7
				c-0.4-0.3-0.3-0.5,0.2-0.8c0.5-0.3-0.2-1.1-0.4-1.2s-0.6-0.1-0.1-0.7c0.5-0.3,0.6-0.9,0.2-1c-1.1,0.2-2.3-0.1-3.4-0.3
				c-1.5-1.2-2.9-2.5-4.1-4.1L72.6,80.4z"/>
			<path d="M81.7,84.7L81.7,84.7c-0.6-0.1-0.9-0.6-1.3-0.9c-0.4-0.3-0.7-0.8-0.9-0.8c-1.4-0.3-2.9-0.6-4.3-1.1c-1-0.4-1.7-1-2.7-1.6
				l0-0.2c0.9,0.6,1.7,1,2.7,1.6c1.4,0.5,2.8,0.8,4.3,1.1c0.2,0,0.6,0.3,1.1,0.9C81,84.1,81.4,84.4,81.7,84.7
				C81.8,84.5,81.8,84.5,81.7,84.7c0.2-0.8,0.1-1.5-0.2-2c-0.3-0.5-0.3-0.7,0.2-1c0.2-0.2,0.3-0.4,0.1-0.4c-0.2-0.2-0.3-0.5-0.5-0.5
				c-0.2,0-0.4-0.1-0.4-0.3c0-0.2,0-0.2,0.3-0.6c0.5-0.1,0.5-0.5,0.4-0.8l-0.2-0.2l-0.7,0.1c-0.7,0.5-1.6,0.3-2.6,0.1
				c-1.5-1.2-2.9-2.5-4.1-4.1l0.2-0.2c1.2,1.5,2.4,2.9,4.1,4.1c0.8,0.2,1.9,0.4,2.7,0.4l0.7-0.1c0.2,0,0.4,0.1,0.4,0.3
				c0.1,0.5-0.2,0.8-0.4,1c-0.2,0.2-0.2,0.2-0.3,0.4l0.2,0c0,0,0.6,0.3,0.7,0.6c0.2,0.2,0.1,0.5-0.1,0.6c-0.5,0.3-0.5,0.3-0.2,0.8
				C82.1,83.1,82.2,84.4,81.7,84.7C82,84.8,82,84.8,81.7,84.7z"/>
			<path d="M98.3,56.8c0.5-0.3,1-0.7,1.3-1c0.5-0.3,1-0.7,1.4-0.8c1-0.7,1.9-1.1,3.1-1.5l-1.4,0.8c-0.5,0.3-1,0.4-1.4,0.8
				C100.2,55.7,99.2,56.4,98.3,56.8z"/>
			<path d="M97.8,58l2.6-0.3l2.6-0.3l2.6-0.3l2.6-0.3l-2.6,0.3l-2.6,0.3l-2.6,0.3L97.8,58z"/>
			<path d="M98.6,59.5l2.3,0.3l2.3,0.3l2.3,0.3l1,0.2c0.4,0.1,0.8,0.2,1.1,0c-0.7,0.1-1.5-0.1-2.3-0.1l-2.3-0.3l-2.3-0.3L98.6,59.5z
				"/>
			<path d="M70.6,59.9C69.3,60,68,60,66.8,59.9c-0.7,0.1-1.3-0.1-1.9-0.2c-0.6-0.1-1.3-0.1-1.9-0.4c0.4,0.1,0.6,0.1,1,0.2l1.1,0
				l1.9,0C68.1,59.8,69.3,59.8,70.6,59.9z"/>
			<path d="M71,61.2c-1.2,0.4-2.5,0.8-3.7,1.2l-1.8,0.5c-0.7,0.1-1.4,0.4-1.8,0.5l1.8-0.5l1.8-0.5C68.5,62,69.8,61.6,71,61.2z"/>
			<path d="M71.9,63.1c-1.2,0.6-2.6,1.2-3.8,1.6L66,65.6l-1,0.4c-0.2,0.2-0.7,0.3-1,0.4c0.5-0.3,1.2-0.8,1.7-0.9l1.9-0.9
				C69.3,64.1,70.5,63.7,71.9,63.1z"/>
			<path class="st5" d="M100.9,35.3c-1-2.6-1.7-5.3-1.8-7.9c0.1-0.4-0.1-0.7,0-1.1c0.1-0.4,0.1-0.6,0-1.1c0.1-0.4,0.1-0.6,0.2-1
				c0.1-0.4,0.1-0.6,0.2-1c0.3-1.2,0.8-2.6,1.4-3.8c0.7-1.1,1.3-2.3,2.4-3.4l0.3-0.4l0.3-0.4c0.2-0.2,0.5-0.5,0.8-0.7l0.5-0.3
				l0.5-0.3l0.5-0.1c0.2-0.2,0.2-0.2,0.5-0.1c0.2-0.2,0.7-0.3,0.9-0.2c0.5-0.1,0.7-0.1,1.1,0c0.7-0.1,1.3-0.2,1.9,0
				c0.7-0.1,1.3,0.1,2.1,0.2c0.6,0.1,1.2,0.3,1.8,0.6c-0.6-0.3-1.2-0.5-1.8-0.6c-0.6-0.1-1.2-0.3-2.1-0.2c-0.7,0.1-1.3-0.1-2.1,0
				c-0.4-0.1-0.7,0.1-1.1,0c-0.2,0.2-0.7,0.1-0.9,0.2c-0.2,0-0.2,0.2-0.5,0.1l-0.5,0.1l-0.5,0.3l-0.5,0.3c-0.2,0.2-0.5,0.3-0.8,0.7
				l-0.3,0.4l-0.3,0.4c-0.9,1.1-1.7,2-2.2,3.4c-0.7,1.1-1.2,2.5-1.4,3.8c-0.3,1.2-0.6,2.7-0.6,3.9c-0.1,1.3,0.1,2.6,0.5,4
				C99.9,32.7,100.3,34.1,100.9,35.3z"/>
		</g>
	</g>
</g>
<g id="cheese">
	
		<image style="overflow:visible;" width="256" height="144" xlink:href="../imgs/epoisses.png"  transform="matrix(1.7188 0 0 1.7188 -101 25.3951)">
	</image>
</g>
</svg>
