<?xml version="1.0" encoding="utf-8"?>
<!-- Generator: Adobe Illustrator 21.0.2, SVG Export Plug-In . SVG Version: 6.00 Build 0)  -->
<svg version="1.1" xmlns="http://www.w3.org/2000/svg" xmlns:xlink="http://www.w3.org/1999/xlink" x="0px" y="0px"
	 viewBox="0 0 260 260" style="enable-background:new 0 0 260 260;" xml:space="preserve">
<style type="text/css">
	.st0{fill:#C4ABA3;}
	.st1{opacity:0.41;}
	.st2{fill:url(#SVGID_1_);}
	.st3{fill:url(#SVGID_2_);}
	.st4{fill:#967248;}
	.st5{fill:#231F20;}
	.st6{fill:#FDD4C8;}
	.st7{opacity:0.32;fill:url(#SVGID_3_);enable-background:new    ;}
	.st8{opacity:0.31;fill:url(#SVGID_4_);enable-background:new    ;}
	.st9{opacity:0.31;fill:url(#SVGID_5_);enable-background:new    ;}
	.st10{opacity:0.58;}
	.st11{fill:url(#SVGID_6_);}
	.st12{fill:url(#SVGID_7_);}
	.st13{fill:#FFFFFF;}
	.st14{opacity:0.49;}
	.st15{fill:#FCE6E0;}
	.st16{fill:#E0C799;}
</style>
<g id="mouse">
	<g id="mouse_1_">
		<g id="Layer_2_1_">
			<path class="st0" d="M111.1,31.9c-2.4,0.7-4.4,2.8-4.9,5.3c-1.1,4.3-1.5,7.5,2.3,10.1c2.8,1.7,6.1,2.5,9.3,2.4
				c0,0-3.3,11-2.1,19.3c1.1,8.1,2.8,16,10.4,16.7c7.5,0.7,11.4,0.6,14,0.3c2.6-0.3,11.3-1.8,14.5-6.8c3.2-4.9,1.4-12.5,0.1-17.4
				s-4.2-12.4-6.1-14.6l-1.9-2.2c0,0,5-0.7,6.5-3.6s2.4-5.3,2.1-7.9c-0.5-2.5-4.1-8.3-7.7-8.3c-2.9-0.1-5.7,1.5-7.2,4
				c-1.1,2.1-2.1,4.2-2.9,6.5c-2.1-0.2-4.2-0.2-6.3,0.1c-2.1,0.5-5.4,1.7-6.4,2.8c0,0-4.5-5.2-7.3-6C114.3,32,112.7,31.2,111.1,31.9
				z"/>
			<path d="M139.9,86.1c-2.2,0.3-5.8,0.6-14-0.3c-3.5-0.3-6-2.3-7.6-5.7c-1.5-3.2-2.2-7.2-2.7-11.3c-1-7.7,1.8-18.2,2.1-19.1
				l-0.3,0.1c-3.2,0.1-6.4-0.7-9-2.4c-3.9-2.6-3.3-6-2.4-10.2c0.7-2.6,2.5-4.5,5-5.4c1.2-0.6,2.6-0.2,4.5,0.4l1.5,0.4
				c2.6,0.7,6.7,5.4,7.3,5.9c1.1-1.1,4-2.1,6.4-2.8c2.1-0.3,4.1-0.3,6.3-0.1c0.8-2.3,1.7-4.4,2.9-6.5c1.4-2.6,4.2-4.1,7.3-4
				c3.7,0,7.3,5.9,7.7,8.3c0.4,2.4-0.4,4.8-2.1,7.9c-0.9,1.4-2.2,2.4-3.8,2.9c-0.8,0.4-1.8,0.6-2.5,0.7l1.8,2.1
				c1.9,2.2,4.7,9.9,6.1,14.6c1.1,4,3.4,12.1-0.1,17.4C153.2,81.1,149.6,84.6,139.9,86.1z M111.9,31.7c-0.3,0.1-0.5,0.2-0.8,0.2l0,0
				c-2.4,0.7-4.3,2.7-4.9,5.3c-1.1,4.2-1.5,7.5,2.3,10.1c2.6,1.7,5.8,2.5,8.9,2.4l0.3-0.1l0,0l0,0c0,0.1-3.2,11.2-2.1,19.1
				c0.6,3.9,1.2,8.1,2.8,11.1c1.7,3.5,4.2,5.3,7.6,5.6c8.3,0.8,11.8,0.5,14,0.3c2.4-0.4,4.7-0.9,7-1.6c3.5-1.3,6.1-2.9,7.5-5.1
				c3.4-5.2,1.1-13.4-0.1-17.3c-1.3-4.7-4.1-12.4-6-14.5l-1.9-2.2l0.1,0c0.9-0.1,1.7-0.4,2.7-0.7c1.5-0.5,2.9-1.4,3.8-2.8
				c1.6-3,2.4-5.5,2-7.8c-0.4-2.4-4-8.2-7.7-8.3c-2.9-0.1-5.7,1.5-7.2,4c-1.1,2.1-2.1,4.2-2.7,6.6l0,0l0,0c-2.1-0.2-4.2-0.2-6.3,0.1
				c-2.4,0.6-5.5,1.6-6.4,2.8l0,0l0,0c0,0-4.5-5.2-7.2-5.9l-1.5-0.4C114.6,31.9,113.2,31.7,111.9,31.7z"/>
			<g class="st1">
				<g>
					
						<radialGradient id="SVGID_1_" cx="-80.5295" cy="1542.3849" r="7.0473" gradientTransform="matrix(0.9893 -0.1456 0.1456 0.9893 1.358 -1502.8567)" gradientUnits="userSpaceOnUse">
						<stop  offset="0.37" style="stop-color:#FF8EA5"/>
						<stop  offset="1" style="stop-color:#FFCBD6"/>
					</radialGradient>
					<path class="st2" d="M152.4,34.1c0.6,4.2-1.6,7.9-4.9,8.4c-2.1,0.3-4.7-0.3-5.8-2.4c-0.7-1.4-1.1-2.8-1.2-4.3
						c-0.6-4.2,1.8-8.5,5.2-9.1c1.3-0.2,2.6-0.1,3.8,0.2C151.2,28.1,151.9,31.6,152.4,34.1z"/>
				</g>
			</g>
			<g class="st1">
				<g>
					
						<radialGradient id="SVGID_2_" cx="-1394.8455" cy="1186.2776" r="7.2504" gradientTransform="matrix(0.4788 -0.878 0.878 0.4788 -259.1399 -1751.9208)" gradientUnits="userSpaceOnUse">
						<stop  offset="0.37" style="stop-color:#FF8EA5"/>
						<stop  offset="1" style="stop-color:#FFCBD6"/>
					</radialGradient>
					<path class="st3" d="M117.7,35.1c2.6,1.8,4.2,4.9,4.1,8.1c-0.1,0.6-0.3,1.2-0.7,1.7c-0.9,1.9-3.1,3.6-5.4,3.3
						c-1.5-0.2-2.9-0.9-4.2-1.6c-3.7-2-5.8-6.6-4.2-9.6c0.6-1.2,1.5-2,2.5-2.8C112.6,32.6,115.4,33.8,117.7,35.1z"/>
				</g>
			</g>
			<path class="st4" d="M140.1,63.1c-3.1-1.1-6.7-1.3-9.8-0.2c-1.1,1-1.5,2.4-1.3,3.9c0.5,2.5,0.9,6.6,3.5,7.8L140.1,63.1z"/>
			<path class="st5" d="M132.6,74.6L132.6,74.6c-2.4-1.2-3-4.7-3.5-7.3c0-0.1-0.1-0.4,0-0.5c-0.2-1.1,0-2,0.5-3
				c0.2-0.4,0.5-0.7,0.8-1l0,0c3.2-1,6.6-0.9,9.8,0.2l0,0l0,0L132.6,74.6z M130.4,62.7c-1.1,1-1.5,2.4-1.3,3.9c0,0.1,0.1,0.4,0,0.5
				c0.5,2.6,1,6,3.4,7.3L140,63C137,61.9,133.6,61.9,130.4,62.7L130.4,62.7z"/>
			<path class="st6" d="M146.6,84.4c1.2,0.7,2.6,1.1,4,1.2c1.7-0.2,2.7-1.7,2.3-2.4c-0.4-0.5-0.9-0.8-1.4-1
				C149.8,83,148.3,83.8,146.6,84.4z"/>
			<path d="M150.7,85.6L150.7,85.6c-1.5,0-3-0.5-4.1-1.2l0,0l0,0c1.6-0.6,3.3-1.4,4.8-2.3l0,0c0.6,0.2,1.1,0.6,1.4,1
				c0.2,0.3,0.1,0.7,0,0.9C152.3,84.8,151.6,85.4,150.7,85.6z M146.7,84.4c1.2,0.7,2.5,1,3.9,1.1l0.1,0c0.9-0.1,1.8-0.7,2.1-1.4
				c0.2-0.2,0.1-0.6,0-0.9c-0.4-0.5-0.9-0.8-1.4-1C149.8,83,148.3,83.8,146.7,84.4z"/>
			<path class="st6" d="M126,85.7c-0.6,0.4-0.9,1.1-0.8,1.8l0.6,0.2l0.1,0.8l0.5,0l0.6,0.5l0.7-0.3c0,0,2.9-0.4,3.9-2.5
				C129.6,86.2,127.8,86,126,85.7z"/>
			<path d="M127,89L127,89l-0.6-0.5l-0.5,0l-0.1-0.8l-0.6-0.2l0,0c-0.1-0.8,0.2-1.5,0.8-1.9l0,0c1.7,0.3,3.6,0.5,5.4,0.4l0,0l0,0
				c-1,2.1-3.7,2.6-3.9,2.5L127,89z M125.9,88.6l0.5,0L127,89l0.7-0.3c0,0,2.7-0.4,3.7-2.6c-1.8,0-3.7-0.2-5.4-0.4
				c-0.6,0.4-0.9,1.1-0.8,1.8l0.6,0.2L125.9,88.6z"/>
			<path class="st6" d="M155.6,76.3c1.5,0.8,3.1,1.1,4.9,1.3c1.9-0.1,6.3-0.1,7.6,2c1.3,2.1,2.6,5.8-0.3,8.1s-8.4,2.8-9.8,3.3
				c-1.5,0.5-7,1.8-8.3,3.5c-1.3,1.7,0.5,0.6,0.5,0.6c2.2-1.2,4.7-2,7.1-2.3c3.2-0.2,11.4-1.1,13.2-3.6c1.7-2.5,3.1-5,1.4-10.1
				c-1.7-5.1-8.9-4.6-8.9-4.6s-5.7-0.7-6.8-2L155.6,76.3z"/>
			<path d="M149.3,95.4c-0.1,0-0.3,0.1-0.2,0c-0.1-0.1,0.1-0.4,0.4-1c1-1.2,4.4-2.2,6.8-2.8c0.7-0.1,1.2-0.3,1.6-0.5
				c0.7-0.1,1.3-0.3,1.9-0.5c2.2-0.5,5.8-1.2,8-2.9c3.4-2.6,1.1-6.8,0.3-8c-1.3-2.1-5.5-2.1-7.4-2l0,0c-1.6-0.1-3.3-0.6-4.9-1.3l0,0
				l0,0l0.5-3.7l0,0c0.4,0.6,1.7,1,3.7,1.4c1.5,0.2,2.9,0.5,3,0.5c1.3,0,2.7,0.1,3.9,0.4c2.4,0.4,4.2,2.1,5.2,4.3
				c1.6,5,0.3,7.4-1.5,10.2c-1.8,2.6-10.5,3.4-13.2,3.6c-1.7,0.1-3.3,0.6-4.8,1.2c-0.8,0.4-1.6,0.6-2.4,1.1
				C149.9,95.2,149.6,95.3,149.3,95.4z M155.6,76.3c1.5,0.8,3.1,1.1,4.9,1.3l0,0c2,0,6.3-0.1,7.6,2c0.8,1.3,2.9,5.4-0.3,8.1
				c-2.2,1.7-5.6,2.4-8,2.9c-0.7,0.1-1.3,0.3-1.9,0.5c-0.4,0.1-0.9,0.4-1.6,0.5c-2.3,0.6-5.7,1.6-6.7,2.8c-0.5,0.6-0.5,0.8-0.4,0.8
				c0.1,0.1,0.8-0.1,0.9-0.2c0.7-0.4,1.5-0.8,2.4-1.1c1.5-0.6,3.1-1,4.8-1.2c2.6-0.2,11.4-0.9,13.1-3.6c1.8-2.6,3.1-5.1,1.5-10.1
				c-0.8-2.2-2.8-3.8-5-4.3c-1.2-0.3-2.6-0.4-3.9-0.4c-0.2,0-5.5-0.5-6.6-1.7L155.6,76.3z"/>
			
				<radialGradient id="SVGID_3_" cx="-74.0774" cy="1591.963" r="11.7128" gradientTransform="matrix(0.9893 -0.1456 0.1456 0.9893 1.358 -1502.8567)" gradientUnits="userSpaceOnUse">
				<stop  offset="0.37" style="stop-color:#FBCAC7"/>
				<stop  offset="0.67" style="stop-color:#FBD3C7"/>
				<stop  offset="0.87" style="stop-color:#BDBDBD"/>
				<stop  offset="1" style="stop-color:#858585"/>
			</radialGradient>
			<path class="st7" d="M155.6,76.3c1.5,0.8,3.1,1.1,4.9,1.3c1.9-0.1,6.3-0.1,7.6,2c1.3,2.1,2.6,5.8-0.3,8.1s-8.4,2.8-9.8,3.3
				c-1.5,0.5-7,1.8-8.3,3.5c-1.3,1.7,0.5,0.6,0.5,0.6c2.2-1.2,4.7-2,7.1-2.3c3.2-0.2,11.4-1.1,13.2-3.6c1.7-2.5,3.1-5,1.4-10.1
				c-1.7-5.1-8.9-4.6-8.9-4.6s-5.7-0.7-6.8-2L155.6,76.3z"/>
			
				<radialGradient id="SVGID_4_" cx="-105.9456" cy="1591.5225" r="2.568" gradientTransform="matrix(0.9893 -0.1456 0.1456 0.9893 1.358 -1502.8567)" gradientUnits="userSpaceOnUse">
				<stop  offset="0.33" style="stop-color:#FBB0C7"/>
				<stop  offset="1" style="stop-color:#858585"/>
			</radialGradient>
			<path class="st8" d="M126,85.7c-0.6,0.4-0.9,1.1-0.8,1.8l0.6,0.2l0.1,0.8l0.5,0l0.6,0.5l0.7-0.3c0,0,2.9-0.4,3.7-2.6
				C129.6,86.2,127.8,86,126,85.7z"/>
			
				<radialGradient id="SVGID_5_" cx="-84.1767" cy="1591.5653" r="2.4711" gradientTransform="matrix(0.9893 -0.1456 0.1456 0.9893 1.358 -1502.8567)" gradientUnits="userSpaceOnUse">
				<stop  offset="0.33" style="stop-color:#FBB0C7"/>
				<stop  offset="1" style="stop-color:#858585"/>
			</radialGradient>
			<path class="st9" d="M146.8,84.5c1.2,0.7,2.5,1,3.8,1c1.7-0.2,2.7-1.7,2.3-2.4c-0.3-0.4-0.8-0.8-1.2-1
				C150.1,83.2,148.4,83.9,146.8,84.5z"/>
			<path class="st5" d="M122,43.4c-0.1-0.9-0.2-1.8-0.5-2.6c-0.2-0.9-0.5-1.7-0.9-2.6c-0.4-0.8-0.9-1.5-1.6-2.2
				c-0.3-0.3-0.7-0.6-1-0.8c-0.4-0.2-0.8-0.4-1.2-0.6c-0.8-0.4-1.7-0.7-2.5-0.9c-0.8-0.3-1.7-0.3-2.6-0.2s-1.7,0.5-2.4,1.1
				c-0.3,0.3-0.6,0.7-0.9,1c-0.3,0.3-0.5,0.7-0.7,1.2c0.2-0.4,0.5-0.8,0.7-1.2c0.3-0.3,0.6-0.7,0.9-1c0.7-0.6,1.6-1,2.4-1.1
				c0.9-0.1,1.8-0.1,2.6,0.2s1.7,0.5,2.5,0.9c0.4,0.2,0.8,0.4,1.2,0.6c0.4,0.2,0.7,0.5,1,0.8c0.7,0.6,1.2,1.3,1.6,2.2
				C121.4,39.9,121.8,41.6,122,43.4z"/>
			<path class="st5" d="M123.1,37.5c0.3,0.3,0.8,0.8,1.1,1.1c0.2,0.2,0.3,0.4,0.5,0.6c0.2,0.2,0.3,0.4,0.4,0.7
				c-0.1-0.1-0.1-0.1-0.2-0.3l-0.2-0.3l-0.5-0.6C123.7,38.2,123.4,37.8,123.1,37.5z"/>
			<path class="st5" d="M137.6,34.5c-0.1,0.4-0.3,0.8-0.3,1.2l-0.2,0.6c0,0.2-0.2,0.4-0.2,0.6c0-0.2,0.1-0.4,0.1-0.6
				c0-0.2,0.1-0.4,0.2-0.6C137.2,35.3,137.4,34.9,137.6,34.5z"/>
			<path class="st5" d="M132.6,54.2c-0.4,0.1-0.9-0.1-1.2-0.5c-0.1-0.1-0.1-0.3-0.1-0.4s0.2-0.2,0.4-0.3l0.1,0
				c0.3-0.1,0.8-0.1,1.4-0.1c0.3-0.1,0.4-0.1,0.5,0.1c0.1,0.1,0.1,0.3,0.1,0.4l0,0c-0.2,0.4-0.5,0.6-0.8,0.9
				C132.8,54.1,132.7,54.2,132.6,54.2z M131.7,53c-0.1,0.1-0.3,0.2-0.3,0.3s0.1,0.3,0.2,0.4c0.4,0.5,1,0.7,1.3,0.3
				c0.3-0.2,0.5-0.6,0.8-0.8c0,0,0-0.2-0.1-0.3c-0.1-0.1-0.2-0.2-0.5-0.1C132.5,52.9,132,52.9,131.7,53L131.7,53L131.7,53z"/>
			<g class="st10">
				
					<radialGradient id="SVGID_6_" cx="-96.8449" cy="1558.8912" r="0.9779" gradientTransform="matrix(0.9893 -0.1456 0.1456 0.9893 1.358 -1502.8567)" gradientUnits="userSpaceOnUse">
					<stop  offset="0.37" style="stop-color:#FF8EA5"/>
					<stop  offset="1" style="stop-color:#FFCBD6"/>
				</radialGradient>
				<path class="st11" d="M131.7,53c-0.1,0-0.7,0.3-0.2,0.7c0.4,0.5,1,0.7,1.5,0.4c0.3-0.2,0.5-0.6,0.8-0.8c0,0,0.2-0.6-0.4-0.5
					C132.5,52.9,131.7,52.9,131.7,53z"/>
				<path class="st5" d="M132.6,54.2c-0.4,0.1-0.9-0.1-1.2-0.5c-0.1-0.1-0.1-0.3-0.1-0.4s0.2-0.2,0.4-0.3l0.1,0
					c0.3-0.1,0.8-0.1,1.4-0.1c0.3-0.1,0.4-0.1,0.5,0.1c0.1,0.1,0.1,0.3,0.1,0.4l0,0c-0.2,0.4-0.5,0.6-0.8,0.9
					C132.8,54.1,132.7,54.2,132.6,54.2z M131.7,53c-0.1,0.1-0.3,0.2-0.3,0.3s0.1,0.3,0.2,0.4c0.4,0.5,1,0.7,1.3,0.3
					c0.3-0.2,0.5-0.6,0.8-0.8c0,0,0-0.2-0.1-0.3c-0.1-0.1-0.2-0.2-0.5-0.1C132.5,52.9,132,52.9,131.7,53L131.7,53L131.7,53z"/>
			</g>
			
				<radialGradient id="SVGID_7_" cx="-96.9416" cy="1560.2017" r="0.462" gradientTransform="matrix(0.9893 -0.1456 0.1456 0.9893 1.358 -1502.8567)" gradientUnits="userSpaceOnUse">
				<stop  offset="0.37" style="stop-color:#FF6FA5"/>
				<stop  offset="1" style="stop-color:#FFCBD6"/>
			</radialGradient>
			<path class="st12" d="M132.6,54.2c0.1,0.4,0.1,0.9,0.2,1.3"/>
			<path class="st5" d="M132.6,54.2c0.1,0.4,0.1,0.9,0.2,1.3c-0.1-0.1-0.2-0.4-0.1-0.7S132.5,54.3,132.6,54.2z"/>
			<ellipse transform="matrix(0.9893 -0.1456 0.1456 0.9893 -5.789 18.5718)" class="st5" cx="124" cy="48.8" rx="1.3" ry="1.4"/>
			<ellipse transform="matrix(0.784 -0.6208 0.6208 0.784 -3.2321 87.7383)" class="st13" cx="124.5" cy="48.5" rx="0.3" ry="0.3"/>
			<ellipse transform="matrix(0.784 -0.6208 0.6208 0.784 -3.0374 87.4767)" class="st13" cx="124.2" cy="48.1" rx="0.1" ry="0.1"/>
			<ellipse transform="matrix(0.9893 -0.1456 0.1456 0.9893 -5.2775 20.8831)" class="st5" cx="140" cy="46.5" rx="1.3" ry="1.4"/>
			<ellipse transform="matrix(0.784 -0.6208 0.6208 0.784 1.6997 97.1934)" class="st13" cx="140.5" cy="46.2" rx="0.3" ry="0.3"/>
			<ellipse transform="matrix(0.7852 -0.6192 0.6192 0.7852 1.7875 97.117)" class="st13" cx="140.9" cy="46" rx="0.1" ry="0.1"/>
			<g class="st14">
				<g>
					
						<ellipse transform="matrix(0.9893 -0.1456 0.1456 0.9893 -6.4073 20.9456)" class="st15" cx="139.9" cy="54.2" rx="3.4" ry="2.5"/>
				</g>
			</g>
			<g class="st14">
				<g>
					
						<ellipse transform="matrix(0.9893 -0.1456 0.1456 0.9893 -6.8314 18.9236)" class="st15" cx="125.9" cy="56.1" rx="3.4" ry="2.5"/>
				</g>
			</g>
			<path class="st16" d="M140.1,63.1c0,0-8.7,0.1-9.3,1.7c-0.4,1.1-0.5,2.2-0.4,3.4c0,0,1,5.5,2.2,6.5c1.2,1,7.2-1.8,7.2-1.8
				c-0.5-1-0.1-2.2,0.8-2.7c0.3-0.1,0.6-0.3,0.9-0.2L140.1,63.1z"/>
			<path class="st5" d="M134.3,74.7c-0.5,0.2-1.2,0.1-1.6-0.1c-1.2-1-2.3-6.4-2.2-6.6c-0.1-1.2,0-2.3,0.4-3.4
				c0.6-1.6,9.1-1.7,9.3-1.7l0,0l0,0l1.4,6.9l0,0c-0.6,0-1.3,0.3-1.7,0.9c-0.2,0.6-0.2,1.4-0.1,1.9l0,0l0,0
				C138,73.7,136.1,74.2,134.3,74.7z M134.1,63.5c-1.6,0.3-3,0.6-3.1,1.1c-0.4,1.1-0.6,2.3-0.6,3.3c0,0,1,5.5,2.2,6.5
				c1.2,1,6.5-1.5,7-1.8c-0.3-0.7-0.3-1.3,0.1-2c0.3-0.6,0.9-0.9,1.7-0.9l0,0l-1.3-6.7C138.1,63.1,136,63.3,134.1,63.5L134.1,63.5z"
				/>
			<path class="st0" d="M145.6,63.8c-0.3,0.6-0.8,1-1.3,1.4c-0.9,0.6-1.8,1.1-2.9,1.3c-0.4,0.1-0.5,0.6-1.3,0.7s-0.2-1.1-0.2-1.1
				s-0.5,0.4-0.8,0.1c-0.3-0.3,0.9-0.9,0.5-0.8c-0.4,0.1-0.6-0.5-0.3-0.7c0.6-0.3,1.1-0.6,1.8-0.9c0.9-0.6,1.5-1.4,1.9-2.4
				L145.6,63.8z"/>
			<path d="M140.3,67.5c-0.1,0-0.2,0-0.4-0.1c-0.2-0.2-0.1-0.7,0-0.9c-0.2,0.2-0.5,0.2-0.8,0c-0.1,0-0.1-0.1-0.1-0.1
				c0-0.1,0.2-0.4,0.5-0.6l0.1-0.1l0,0c-0.1,0-0.4-0.1-0.5-0.2c-0.1-0.1-0.1-0.4,0.1-0.6c0.1-0.1,0.4-0.3,0.6-0.3
				c0.4-0.2,0.8-0.4,1.1-0.6c0.7-0.6,1.4-1.4,1.8-2.4l0.1,0c-0.4,1-1,1.7-1.9,2.4c-0.4,0.2-0.8,0.4-1.2,0.6
				c-0.1,0.1-0.4,0.2-0.6,0.3c-0.1,0.1-0.2,0.4-0.1,0.5s0.2,0.2,0.4,0.2l0.1,0c0,0.1,0,0.1-0.2,0.2s-0.4,0.3-0.5,0.4l0,0.1
				c0.3,0.3,0.8-0.1,0.8-0.1l0.2-0.2l-0.2,0.2c0,0.2-0.2,0.7-0.2,1C139.9,67.4,140.1,67.4,140.3,67.5c0.1-0.1,0.4-0.3,0.7-0.5
				c0.1-0.1,0.3-0.2,0.4-0.3c1.1-0.2,2-0.7,2.9-1.3c0.5-0.4,0.9-1,1.3-1.4l0.1,0c-0.3,0.6-0.8,1-1.3,1.4c-0.9,0.7-1.9,1.2-3,1.4
				c-0.1,0-0.3,0.1-0.4,0.2C140.8,67.3,140.6,67.5,140.3,67.5z"/>
			<path class="st0" d="M125.7,67.7c0.6,0.3,1.1,0.6,1.6,0.9c0.8,0.3,1.7,0.4,2.6,0.6c0.2,0,0.9,0.8,1.4,1c0.4,0.2,0.1-0.9-0.1-1
				c-0.2-0.2-0.2-0.3,0.1-0.5c0.3-0.2-0.1-0.7-0.3-0.7c-0.1,0-0.4-0.1-0.1-0.4c0.3-0.2,0.3-0.6,0.1-0.6c-0.7,0.1-1.4,0-2-0.1
				c-0.9-0.7-1.8-1.4-2.5-2.3L125.7,67.7z"/>
			<path d="M131.3,70L131.3,70c-0.4-0.1-0.6-0.3-0.8-0.5c-0.2-0.2-0.4-0.5-0.6-0.5c-0.9-0.1-1.7-0.3-2.6-0.6
				c-0.6-0.2-1.1-0.6-1.6-0.9l0-0.1c0.6,0.3,1.1,0.6,1.6,0.9c0.8,0.3,1.7,0.4,2.6,0.6c0.1,0,0.4,0.2,0.7,0.5
				C130.9,69.7,131.1,69.9,131.3,70C131.4,69.9,131.4,69.9,131.3,70c0.1-0.5,0-0.9-0.2-1.2c-0.2-0.3-0.2-0.4,0.1-0.6
				c0.1-0.1,0.2-0.2,0-0.2c-0.1-0.1-0.2-0.3-0.3-0.3c-0.1,0-0.2,0-0.2-0.2c0-0.1,0-0.1,0.2-0.4c0.3-0.1,0.3-0.3,0.2-0.5l-0.1-0.1
				l-0.4,0.1c-0.4,0.3-0.9,0.2-1.5,0.1c-0.9-0.7-1.8-1.4-2.5-2.3l0.1-0.1c0.7,0.9,1.5,1.6,2.5,2.3c0.5,0.1,1.1,0.2,1.6,0.1l0.4-0.1
				c0.1,0,0.2,0,0.2,0.2c0.1,0.3-0.1,0.5-0.2,0.6s-0.1,0.1-0.2,0.2l0.1,0c0,0,0.4,0.2,0.5,0.3c0.1,0.1,0.1,0.3-0.1,0.4
				c-0.3,0.2-0.3,0.2-0.1,0.5C131.5,69,131.6,69.8,131.3,70C131.5,70,131.5,70,131.3,70z"/>
			<path d="M140.5,52.9c0.3-0.2,0.6-0.4,0.7-0.6c0.3-0.2,0.6-0.4,0.8-0.5c0.6-0.4,1.1-0.7,1.8-1l-0.8,0.5c-0.3,0.2-0.6,0.3-0.8,0.5
				C141.7,52.2,141.1,52.7,140.5,52.9z"/>
			<path d="M140.3,53.7l1.6-0.3l1.6-0.3l1.6-0.3l1.6-0.3l-1.6,0.3l-1.6,0.3l-1.6,0.3L140.3,53.7z"/>
			<path d="M140.8,54.5l1.4,0.1l1.4,0.1l1.4,0.1l0.6,0.1c0.2,0,0.5,0.1,0.6,0c-0.4,0.1-0.9,0-1.4,0l-1.4-0.1l-1.4-0.1L140.8,54.5z"
				/>
			<path d="M124.1,55.5c-0.8,0.1-1.5,0.1-2.3,0.1c-0.4,0.1-0.8,0-1.1-0.1c-0.4-0.1-0.8,0-1.1-0.2c0.2,0,0.4,0.1,0.6,0.1l0.6,0
				l1.2-0.1C122.5,55.5,123.3,55.5,124.1,55.5z"/>
			<path d="M124.3,56.3c-0.7,0.3-1.5,0.5-2.2,0.8l-1.1,0.3c-0.4,0.1-0.8,0.2-1.1,0.3l1.1-0.3l1.1-0.3
				C122.8,56.8,123.6,56.5,124.3,56.3z"/>
			<path d="M124.9,57.4c-0.7,0.4-1.5,0.8-2.2,1l-1.2,0.6l-0.6,0.3c-0.1,0.1-0.4,0.2-0.6,0.3c0.3-0.2,0.7-0.5,1-0.6l1.1-0.6
				C123.4,58,124.1,57.8,124.9,57.4z"/>
			<path class="st5" d="M141.5,40c-0.6-1.5-1.1-3.1-1.3-4.7c0-0.2-0.1-0.4,0-0.6c0-0.2,0.1-0.4,0-0.6c0-0.2,0.1-0.4,0.1-0.6
				s0.1-0.4,0.1-0.6c0.1-0.7,0.4-1.6,0.8-2.3c0.4-0.7,0.7-1.4,1.4-2.1l0.2-0.2l0.2-0.2c0.1-0.1,0.3-0.3,0.5-0.4l0.3-0.2l0.3-0.2
				l0.3-0.1c0.1-0.1,0.1-0.1,0.3-0.1c0.1-0.1,0.4-0.2,0.5-0.2c0.3-0.1,0.4-0.1,0.6,0c0.4-0.1,0.8-0.1,1.2-0.1c0.4-0.1,0.8,0,1.3,0.1
				c0.4,0.1,0.7,0.1,1.1,0.3c-0.4-0.2-0.7-0.2-1.1-0.3c-0.4-0.1-0.7-0.1-1.3-0.1c-0.4,0.1-0.8,0-1.3,0c-0.2,0-0.4,0.1-0.6,0
				c-0.1,0.1-0.4,0.1-0.5,0.2c-0.1,0-0.1,0.1-0.3,0.1l-0.3,0.1l-0.3,0.2l-0.3,0.2c-0.1,0.1-0.3,0.2-0.5,0.4l-0.2,0.2l-0.2,0.2
				c-0.5,0.7-1,1.2-1.2,2.1c-0.4,0.7-0.6,1.6-0.8,2.3c-0.1,0.7-0.3,1.6-0.3,2.4c0,0.8,0.1,1.5,0.4,2.4
				C140.9,38.5,141.1,39.3,141.5,40z"/>
		</g>
	</g>
</g>
<g id="cheese">
	
		<image style="overflow:visible;" width="256" height="171" xlink:href="../imgs/gruyere.png"  transform="matrix(1.2982 0 0 1.2982 -36.1754 -7)">
	</image>
</g>
</svg>
