<?xml version="1.0" encoding="utf-8"?>
<!-- Generator: Adobe Illustrator 21.0.2, SVG Export Plug-In . SVG Version: 6.00 Build 0)  -->
<svg version="1.1" xmlns="http://www.w3.org/2000/svg" xmlns:xlink="http://www.w3.org/1999/xlink" x="0px" y="0px"
	 viewBox="0 0 260 260" style="enable-background:new 0 0 260 260;" xml:space="preserve">
<style type="text/css">
	.st0{fill:#C4ABA3;}
	.st1{opacity:0.41;}
	.st2{fill:url(#SVGID_1_);}
	.st3{fill:url(#SVGID_2_);}
	.st4{fill:#967248;}
	.st5{fill:#231F20;}
	.st6{fill:#FDD4C8;}
	.st7{opacity:0.32;fill:url(#SVGID_3_);enable-background:new    ;}
	.st8{opacity:0.31;fill:url(#SVGID_4_);enable-background:new    ;}
	.st9{opacity:0.31;fill:url(#SVGID_5_);enable-background:new    ;}
	.st10{opacity:0.58;}
	.st11{fill:url(#SVGID_6_);}
	.st12{fill:url(#SVGID_7_);}
	.st13{fill:#FFFFFF;}
	.st14{opacity:0.49;}
	.st15{fill:#FCE6E0;}
	.st16{fill:#E0C799;}
</style>
<g id="mouse">
	<g id="Layer_2_1_">
		<path class="st0" d="M62.4,44c-1.8,0.9-3.1,2.8-3.2,4.8c-0.3,3.5-0.2,6.1,3.1,7.6c2.4,1,5.1,1.2,7.6,0.7c0,0-1.2,9.1,0.8,15.4
			C72.6,78.7,75,84.7,81,84.3c6-0.4,9-1,11-1.6s8.6-2.9,10.5-7.2c1.9-4.3-0.5-10-2.2-13.7c-1.7-3.7-4.9-9.2-6.7-10.7l-1.8-1.5
			c0,0,3.8-1.2,4.6-3.7c0.8-2.5,1.2-4.5,0.6-6.5c-0.7-1.9-4.3-6-7.1-5.5c-2.3,0.3-4.3,1.9-5.1,4.1c-0.6,1.8-1.1,3.6-1.4,5.5
			c-1.7,0.1-3.3,0.4-4.9,0.9c-1.6,0.7-4,2-4.7,3c0,0-4.2-3.5-6.5-3.8C64.9,43.6,63.5,43.2,62.4,44z"/>
		<path d="M92,82.8c-1.7,0.5-4.5,1.2-11,1.6c-2.8,0.2-5-1-6.7-3.5c-1.6-2.3-2.7-5.4-3.6-8.5c-1.8-5.9-0.9-14.5-0.8-15.3l-0.2,0.1
			c-2.5,0.5-5.1,0.3-7.4-0.7c-3.4-1.5-3.4-4.3-3.2-7.7c0.2-2.1,1.4-3.9,3.2-4.9c0.9-0.6,2-0.5,3.6-0.3l1.2,0.1
			c2.1,0.2,6,3.4,6.5,3.7c0.7-1,2.9-2.2,4.7-3c1.6-0.5,3.2-0.8,4.9-0.9c0.3-1.9,0.8-3.7,1.4-5.5c0.8-2.2,2.8-3.8,5.2-4.1
			c2.9-0.5,6.5,3.7,7.1,5.5s0.3,3.8-0.6,6.5c-0.5,1.2-1.4,2.2-2.6,2.8c-0.6,0.4-1.3,0.7-1.9,0.9l1.7,1.4c1.8,1.5,5,7.2,6.7,10.7
			c1.4,3,4.2,9.1,2.2,13.7C101.8,77.2,99.4,80.4,92,82.8z M63,43.7c-0.2,0.1-0.4,0.2-0.6,0.3l0,0c-1.8,0.9-3,2.7-3.2,4.8
			c-0.3,3.4-0.2,6.1,3.1,7.6c2.3,1,4.9,1.2,7.3,0.7l0.2-0.1l0,0l0,0c0,0.1-1.1,9.2,0.8,15.3c1,3,2,6.2,3.6,8.4
			c1.8,2.5,4,3.6,6.7,3.4c6.6-0.4,9.3-1.1,11-1.6c1.8-0.6,3.6-1.3,5.3-2.2c2.6-1.5,4.4-3.1,5.2-5c2-4.5-0.9-10.7-2.3-13.6
			c-1.6-3.5-4.8-9.2-6.6-10.6l-1.8-1.5l0.1,0c0.7-0.2,1.3-0.5,2-0.9c1.1-0.6,2.1-1.5,2.6-2.7c0.9-2.6,1.2-4.6,0.6-6.4
			s-4.2-5.9-7.1-5.5c-2.3,0.3-4.3,1.9-5.1,4.1c-0.6,1.8-1.1,3.6-1.3,5.5l0,0l0,0c-1.7,0.1-3.3,0.4-4.9,0.9c-1.8,0.8-4.1,2-4.7,3l0,0
			l0,0c0,0-4.2-3.5-6.4-3.7l-1.2-0.1C65.1,43.5,64,43.5,63,43.7z"/>
		<g class="st1">
			<g>
				
					<radialGradient id="SVGID_1_" cx="99.1956" cy="-918.5961" r="5.6103" gradientTransform="matrix(0.9526 -0.3041 -0.3041 -0.9526 -283.4995 -803.2123)" gradientUnits="userSpaceOnUse">
					<stop  offset="0.37" style="stop-color:#FF8EA5"/>
					<stop  offset="1" style="stop-color:#FFCBD6"/>
				</radialGradient>
				<path class="st2" d="M95.1,40.4c1,3.2-0.2,6.4-2.8,7.2c-1.6,0.5-3.7,0.4-4.9-1.1c-0.7-1-1.2-2.1-1.5-3.2c-1-3.2,0.3-6.9,2.9-7.8
					c1-0.3,2-0.4,3-0.3C93.4,35.8,94.4,38.5,95.1,40.4z"/>
			</g>
		</g>
		<g class="st1">
			<g>
				
					<radialGradient id="SVGID_2_" cx="-628.6509" cy="-907.7225" r="5.7675" gradientTransform="matrix(0.3301 -0.944 -0.944 -0.3301 -583.204 -842.6194)" gradientUnits="userSpaceOnUse">
					<stop  offset="0.37" style="stop-color:#FF8EA5"/>
					<stop  offset="1" style="stop-color:#FFCBD6"/>
				</radialGradient>
				<path class="st3" d="M68,45.6c2.3,1.1,3.9,3.3,4.3,5.8c0,0.5-0.1,1-0.3,1.4c-0.5,1.6-2,3.2-3.8,3.3c-1.2,0-2.4-0.3-3.5-0.7
					c-3.2-1.1-5.4-4.4-4.5-7c0.3-1,0.9-1.8,1.6-2.5C63.6,44.3,66,44.9,68,45.6z"/>
			</g>
		</g>
		<path class="st4" d="M89.2,64.7c-2.6-0.5-5.4-0.2-7.7,1.1c-0.7,0.9-0.9,2.1-0.5,3.2c0.7,1.9,1.6,5.1,3.8,5.7L89.2,64.7z"/>
		<path class="st5" d="M84.8,74.7L84.8,74.7c-2-0.6-3-3.3-3.7-5.3c0-0.1-0.1-0.3-0.1-0.4c-0.3-0.8-0.3-1.6,0-2.4
			c0.1-0.3,0.3-0.6,0.5-0.9l0,0c2.4-1.2,5.1-1.6,7.7-1.1l0,0l0,0L84.8,74.7z M81.5,65.7c-0.7,0.9-0.9,2.1-0.5,3.2
			c0,0.1,0.1,0.3,0.1,0.4c0.7,2,1.6,4.6,3.6,5.3l4.4-9.9C86.6,64.2,83.9,64.6,81.5,65.7L81.5,65.7z"/>
		<path class="st6" d="M97,80.6c1,0.4,2.2,0.5,3.3,0.4c1.3-0.4,1.9-1.7,1.5-2.2c-0.4-0.3-0.8-0.5-1.2-0.6
			C99.4,79.1,98.3,79.9,97,80.6z"/>
		<path d="M100.4,81L100.4,81C99.2,81.2,98,81,97,80.6l0,0l0,0c1.2-0.7,2.4-1.5,3.5-2.4l0,0c0.5,0.1,0.9,0.3,1.2,0.6
			c0.2,0.2,0.2,0.5,0.1,0.7C101.6,80.2,101.1,80.8,100.4,81z M97.1,80.6c1,0.4,2.1,0.5,3.2,0.4l0.1,0c0.7-0.2,1.3-0.8,1.5-1.4
			c0.1-0.2,0-0.5-0.1-0.7c-0.4-0.3-0.8-0.5-1.2-0.6C99.4,79.1,98.3,79.9,97.1,80.6z"/>
		<path class="st6" d="M81,84.3c-0.4,0.4-0.6,1-0.4,1.5l0.5,0.1l0.2,0.6l0.4-0.1l0.5,0.3l0.5-0.3c0,0,2.2-0.7,2.7-2.5
			C83.9,84.2,82.5,84.3,81,84.3z"/>
		<path d="M82.2,86.8L82.2,86.8l-0.5-0.3l-0.4,0.1L81.1,86l-0.5-0.1l0,0c-0.2-0.6,0-1.2,0.4-1.6l0,0c1.4,0,2.9-0.1,4.3-0.4l0,0l0,0
			c-0.5,1.8-2.6,2.5-2.7,2.5L82.2,86.8z M81.3,86.6l0.4-0.1l0.5,0.3l0.5-0.3c0,0,2.1-0.7,2.6-2.5c-1.4,0.2-2.9,0.3-4.3,0.4
			c-0.4,0.4-0.6,1-0.4,1.5l0.5,0.1L81.3,86.6z"/>
		<path class="st6" d="M103.1,73.1c1.3,0.4,2.6,0.5,4,0.4c1.5-0.3,4.9-0.9,6.2,0.6c1.3,1.5,2.8,4.2,0.8,6.4s-6.2,3.3-7.3,3.9
			c-1.1,0.6-5.3,2.3-6.1,3.8s0.5,0.4,0.5,0.4c1.6-1.2,3.4-2.2,5.3-2.7c2.5-0.6,8.8-2.3,9.9-4.5c1-2.2,1.8-4.3-0.2-8.1
			c-2-3.8-7.6-2.5-7.6-2.5S104,71,103,70.1L103.1,73.1z"/>
		<path d="M100.6,88.9c-0.1,0-0.2,0.1-0.2,0c-0.1-0.1,0-0.3,0.2-0.8c0.6-1.1,3.2-2.3,5-3.1c0.5-0.2,0.9-0.4,1.2-0.6
			c0.5-0.2,1-0.4,1.4-0.6c1.7-0.7,4.4-1.7,5.9-3.3c2.3-2.5,0-5.5-0.8-6.3c-1.3-1.5-4.6-0.9-6.1-0.6l0,0c-1.3,0.1-2.7,0-4-0.4l0,0
			l0,0l-0.1-3l0,0c0.4,0.4,1.5,0.6,3.1,0.6c1.2,0,2.3,0,2.4,0c1-0.2,2.1-0.3,3.1-0.2c1.9,0,3.6,1.1,4.6,2.7c1.9,3.7,1.2,5.8,0.1,8.2
			c-1.1,2.3-7.8,4-9.9,4.5c-1.3,0.3-2.5,0.9-3.6,1.6c-0.6,0.4-1.2,0.7-1.7,1.2C101,88.7,100.8,88.8,100.6,88.9z M103.1,73.1
			c1.3,0.4,2.6,0.5,4,0.4l0,0c1.6-0.3,4.9-0.9,6.2,0.6c0.8,0.9,3,3.9,0.8,6.4c-1.5,1.6-4.1,2.6-5.9,3.3c-0.5,0.2-1,0.4-1.4,0.6
			c-0.3,0.1-0.7,0.4-1.2,0.6c-1.7,0.8-4.3,2-4.9,3.1c-0.3,0.5-0.3,0.7-0.2,0.7c0.1,0.1,0.6-0.2,0.7-0.3c0.5-0.4,1.1-0.8,1.7-1.2
			c1.1-0.7,2.3-1.2,3.6-1.6c2-0.5,8.8-2.2,9.8-4.5c1.1-2.3,1.8-4.4-0.1-8.1c-0.9-1.6-2.7-2.6-4.5-2.7c-1-0.1-2.1,0-3.1,0.2
			c-0.2,0-4.4,0.3-5.4-0.5L103.1,73.1z"/>
		
			<radialGradient id="SVGID_3_" cx="104.3321" cy="-958.0651" r="9.3245" gradientTransform="matrix(0.9526 -0.3041 -0.3041 -0.9526 -283.4995 -803.2123)" gradientUnits="userSpaceOnUse">
			<stop  offset="0.37" style="stop-color:#FBCAC7"/>
			<stop  offset="0.67" style="stop-color:#FBD3C7"/>
			<stop  offset="0.87" style="stop-color:#BDBDBD"/>
			<stop  offset="1" style="stop-color:#858585"/>
		</radialGradient>
		<path class="st7" d="M103.1,73.1c1.3,0.4,2.6,0.5,4,0.4c1.5-0.3,4.9-0.9,6.2,0.6c1.3,1.5,2.8,4.2,0.8,6.4s-6.2,3.3-7.3,3.9
			c-1.1,0.6-5.3,2.3-6.1,3.8s0.5,0.4,0.5,0.4c1.6-1.2,3.4-2.2,5.3-2.7c2.5-0.6,8.8-2.3,9.9-4.5c1-2.2,1.8-4.3-0.2-8.1
			c-2-3.8-7.6-2.5-7.6-2.5S104,71,103,70.1L103.1,73.1z"/>
		
			<radialGradient id="SVGID_4_" cx="78.9619" cy="-957.7144" r="2.0444" gradientTransform="matrix(0.9526 -0.3041 -0.3041 -0.9526 -283.4995 -803.2123)" gradientUnits="userSpaceOnUse">
			<stop  offset="0.33" style="stop-color:#FBB0C7"/>
			<stop  offset="1" style="stop-color:#858585"/>
		</radialGradient>
		<path class="st8" d="M81,84.3c-0.4,0.4-0.6,1-0.4,1.5l0.5,0.1l0.2,0.6l0.4-0.1l0.5,0.3l0.5-0.3c0,0,2.2-0.7,2.6-2.5
			C83.9,84.2,82.5,84.3,81,84.3z"/>
		
			<radialGradient id="SVGID_5_" cx="96.2921" cy="-957.7485" r="1.9672" gradientTransform="matrix(0.9526 -0.3041 -0.3041 -0.9526 -283.4995 -803.2123)" gradientUnits="userSpaceOnUse">
			<stop  offset="0.33" style="stop-color:#FBB0C7"/>
			<stop  offset="1" style="stop-color:#858585"/>
		</radialGradient>
		<path class="st9" d="M97.2,80.7c1,0.4,2.1,0.5,3.1,0.3c1.3-0.4,1.9-1.7,1.5-2.2c-0.3-0.3-0.7-0.5-1.1-0.6
			C99.6,79.2,98.4,80,97.2,80.7z"/>
		<path class="st5" d="M72.4,51.6c-0.2-0.7-0.4-1.4-0.7-2c-0.3-0.7-0.6-1.3-1-1.9c-0.4-0.6-0.9-1.1-1.5-1.5
			c-0.3-0.2-0.6-0.4-0.9-0.5c-0.3-0.1-0.7-0.2-1-0.3c-0.7-0.2-1.4-0.3-2.1-0.4c-0.7-0.1-1.4,0-2.1,0.2c-0.7,0.2-1.3,0.6-1.7,1.2
			c-0.2,0.3-0.4,0.6-0.6,0.9c-0.2,0.3-0.3,0.6-0.4,1c0.1-0.3,0.3-0.7,0.4-1c0.2-0.3,0.4-0.6,0.6-0.9c0.5-0.6,1.1-1,1.7-1.2
			c0.7-0.2,1.4-0.3,2.1-0.2c0.7,0.1,1.4,0.2,2.1,0.4c0.3,0.1,0.7,0.2,1,0.3c0.3,0.1,0.6,0.3,0.9,0.5c0.6,0.4,1.1,0.9,1.5,1.5
			C71.5,48.9,72,50.2,72.4,51.6z"/>
		<path class="st5" d="M72.5,46.8c0.3,0.2,0.7,0.5,1,0.7c0.2,0.1,0.3,0.3,0.5,0.4c0.2,0.1,0.3,0.3,0.4,0.5c-0.1-0.1-0.1-0.1-0.2-0.2
			l-0.2-0.2l-0.5-0.4C73.1,47.3,72.8,47,72.5,46.8z"/>
		<path class="st5" d="M83.5,42.6c0,0.3-0.1,0.7-0.1,1l-0.1,0.5c0,0.2-0.1,0.3-0.1,0.5c0-0.2,0-0.3,0-0.5c0-0.2,0-0.3,0.1-0.5
			C83.3,43.3,83.4,42.9,83.5,42.6z"/>
		<path class="st5" d="M82.1,58.7c-0.3,0.1-0.7,0-1-0.2C81,58.4,81,58.3,81,58.2c0-0.1,0.1-0.2,0.3-0.3l0.1,0
			c0.2-0.1,0.6-0.2,1.1-0.3c0.2-0.1,0.3-0.1,0.4,0c0.1,0.1,0.1,0.2,0.1,0.3l0,0c-0.1,0.3-0.3,0.5-0.5,0.8
			C82.3,58.6,82.2,58.7,82.1,58.7z M81.3,57.9c-0.1,0.1-0.2,0.2-0.2,0.3c0,0.1,0.1,0.2,0.2,0.3c0.4,0.3,0.9,0.4,1.1,0.1
			c0.2-0.2,0.3-0.5,0.5-0.7c0,0,0-0.2-0.1-0.2c-0.1-0.1-0.2-0.1-0.4,0C81.9,57.7,81.5,57.8,81.3,57.9L81.3,57.9L81.3,57.9z"/>
		<g class="st10">
			
				<radialGradient id="SVGID_6_" cx="86.207" cy="-931.7368" r="0.7785" gradientTransform="matrix(0.9526 -0.3041 -0.3041 -0.9526 -283.4995 -803.2123)" gradientUnits="userSpaceOnUse">
				<stop  offset="0.37" style="stop-color:#FF8EA5"/>
				<stop  offset="1" style="stop-color:#FFCBD6"/>
			</radialGradient>
			<path class="st11" d="M81.3,57.9c-0.1,0-0.5,0.3-0.1,0.6s0.9,0.4,1.2,0.1c0.2-0.2,0.3-0.5,0.5-0.7c0,0,0.1-0.5-0.4-0.3
				C81.9,57.7,81.3,57.8,81.3,57.9z"/>
			<path class="st5" d="M82.1,58.7c-0.3,0.1-0.7,0-1-0.2C81,58.4,81,58.3,81,58.2c0-0.1,0.1-0.2,0.3-0.3l0.1,0
				c0.2-0.1,0.6-0.2,1.1-0.3c0.2-0.1,0.3-0.1,0.4,0c0.1,0.1,0.1,0.2,0.1,0.3l0,0c-0.1,0.3-0.3,0.5-0.5,0.8
				C82.3,58.6,82.2,58.7,82.1,58.7z M81.3,57.9c-0.1,0.1-0.2,0.2-0.2,0.3c0,0.1,0.1,0.2,0.2,0.3c0.4,0.3,0.9,0.4,1.1,0.1
				c0.2-0.2,0.3-0.5,0.5-0.7c0,0,0-0.2-0.1-0.2c-0.1-0.1-0.2-0.1-0.4,0C81.9,57.7,81.5,57.8,81.3,57.9L81.3,57.9L81.3,57.9z"/>
		</g>
		
			<radialGradient id="SVGID_7_" cx="86.13" cy="-932.78" r="0.3678" gradientTransform="matrix(0.9526 -0.3041 -0.3041 -0.9526 -283.4995 -803.2123)" gradientUnits="userSpaceOnUse">
			<stop  offset="0.37" style="stop-color:#FF6FA5"/>
			<stop  offset="1" style="stop-color:#FFCBD6"/>
		</radialGradient>
		<path class="st12" d="M82.1,58.7c0.1,0.3,0.2,0.7,0.3,1"/>
		<path class="st5" d="M82.1,58.7c0.1,0.3,0.2,0.7,0.3,1c-0.1-0.1-0.2-0.3-0.2-0.5C82.2,59,82.1,58.8,82.1,58.7z"/>
		<ellipse transform="matrix(0.9526 -0.3041 0.3041 0.9526 -13.3819 25.3586)" class="st5" cx="74.7" cy="55.6" rx="1" ry="1.1"/>
		<ellipse transform="matrix(0.6729 -0.7397 0.7397 0.6729 -16.3679 73.5592)" class="st13" cx="75" cy="55.3" rx="0.2" ry="0.2"/>
		<ellipse transform="matrix(0.6729 -0.7397 0.7397 0.6729 -16.216 73.2526)" class="st13" cx="74.7" cy="55" rx="0.1" ry="0.1"/>
		<ellipse transform="matrix(0.9526 -0.3041 0.3041 0.9526 -11.6089 28.9053)" class="st5" cx="87" cy="51.7" rx="1" ry="1.1"/>
		<ellipse transform="matrix(0.6729 -0.7397 0.7397 0.6729 -9.455 81.3565)" class="st13" cx="87.3" cy="51.4" rx="0.2" ry="0.2"/>
		<ellipse transform="matrix(0.6744 -0.7384 0.7384 0.6744 -9.2963 81.3374)" class="st13" cx="87.6" cy="51.2" rx="0.1" ry="0.1"/>
		<g class="st14">
			<g>
				
					<ellipse transform="matrix(0.9526 -0.3041 0.3041 0.9526 -13.4293 29.4738)" class="st15" cx="87.9" cy="57.8" rx="2.7" ry="2"/>
			</g>
		</g>
		<g class="st14">
			<g>
				
					<ellipse transform="matrix(0.9526 -0.3041 0.3041 0.9526 -14.9197 26.3392)" class="st15" cx="77.1" cy="61.1" rx="2.7" ry="2"/>
			</g>
		</g>
		<path class="st16" d="M89.2,64.7c0,0-6.8,1.2-7.1,2.5c-0.2,0.9-0.1,1.8,0.1,2.7c0,0,1.5,4.2,2.6,4.8c1.1,0.6,5.4-2.3,5.4-2.3
			c-0.5-0.7-0.4-1.7,0.3-2.2c0.2-0.1,0.4-0.3,0.7-0.3L89.2,64.7z"/>
		<path class="st5" d="M86.1,74.6c-0.4,0.2-0.9,0.2-1.3,0.1c-1.1-0.6-2.6-4.7-2.6-4.9c-0.2-0.9-0.3-1.8-0.1-2.7
			c0.3-1.3,6.9-2.5,7.1-2.5l0,0l0,0l2,5.2l0,0c-0.5,0.1-1,0.4-1.2,0.9c-0.1,0.5,0,1.1,0.2,1.5l0,0l0,0C88.9,73.3,87.5,74,86.1,74.6z
			 M84.5,65.8c-1.2,0.4-2.3,0.9-2.3,1.3C82,68,82,69,82.2,69.8c0,0,1.5,4.2,2.6,4.8c1.1,0.6,4.9-2,5.3-2.3c-0.3-0.5-0.4-1-0.2-1.6
			c0.2-0.5,0.6-0.8,1.2-0.9l0,0l-1.9-5.1C87.6,65,86,65.4,84.5,65.8L84.5,65.8z"/>
		<path class="st0" d="M93.6,64.6c-0.2,0.5-0.5,0.9-0.8,1.3c-0.6,0.6-1.3,1.1-2.1,1.4c-0.3,0.1-0.3,0.5-0.9,0.7s-0.3-0.8-0.3-0.8
			s-0.3,0.4-0.6,0.2c-0.3-0.2,0.6-0.8,0.3-0.7s-0.5-0.3-0.3-0.5c0.4-0.3,0.8-0.6,1.3-0.9c0.6-0.6,1-1.3,1.2-2.1L93.6,64.6z"/>
		<path d="M89.9,68.2c-0.1,0-0.2,0-0.3,0c-0.2-0.1-0.2-0.5-0.1-0.7c-0.1,0.2-0.4,0.2-0.6,0.1c-0.1,0-0.1-0.1-0.1-0.1
			c0-0.1,0.1-0.3,0.3-0.5l0.1-0.1l0,0c-0.1,0-0.3,0-0.4-0.1c-0.1-0.1-0.1-0.3,0-0.5c0.1-0.1,0.3-0.3,0.4-0.3
			c0.3-0.2,0.6-0.4,0.8-0.6c0.5-0.6,0.9-1.3,1.1-2.1l0.1,0c-0.2,0.8-0.6,1.5-1.2,2.1c-0.3,0.2-0.6,0.4-0.9,0.6
			c-0.1,0.1-0.3,0.2-0.4,0.3c-0.1,0.1-0.1,0.3,0,0.4c0.1,0.1,0.2,0.1,0.3,0.1c0,0,0.1,0,0.1,0c0,0.1,0,0.1-0.1,0.2
			c-0.1,0.1-0.3,0.3-0.3,0.4c0,0,0,0.1,0,0.1c0.3,0.2,0.6-0.2,0.6-0.2l0.1-0.2l-0.1,0.2c0,0.2-0.1,0.6,0,0.8
			C89.6,68.1,89.7,68.1,89.9,68.2c0.1-0.1,0.3-0.3,0.5-0.5c0.1-0.1,0.2-0.2,0.3-0.3c0.8-0.3,1.5-0.8,2.1-1.4
			c0.3-0.4,0.6-0.9,0.8-1.3l0.1,0c-0.2,0.5-0.5,0.9-0.8,1.3c-0.6,0.7-1.3,1.2-2.2,1.5c-0.1,0-0.2,0.1-0.3,0.2
			C90.3,67.9,90.1,68.1,89.9,68.2z"/>
		<path class="st0" d="M78.5,70.2c0.5,0.2,0.9,0.3,1.4,0.5c0.7,0.1,1.4,0.1,2.1,0.1c0.2,0,0.8,0.5,1.2,0.6c0.3,0.1,0-0.7-0.2-0.8
			c-0.2-0.1-0.2-0.2,0-0.4c0.2-0.2-0.2-0.5-0.3-0.5s-0.3,0-0.1-0.3c0.2-0.2,0.2-0.5,0-0.5c-0.5,0.2-1.1,0.2-1.6,0.2
			c-0.8-0.4-1.6-0.9-2.3-1.5L78.5,70.2z"/>
		<path d="M83.2,71.3C83.2,71.3,83.2,71.3,83.2,71.3c-0.3,0-0.5-0.2-0.7-0.3c-0.2-0.1-0.4-0.3-0.5-0.3c-0.7,0-1.4,0-2.1-0.1
			c-0.5-0.1-0.9-0.3-1.4-0.5l0-0.1c0.5,0.2,0.9,0.3,1.4,0.5c0.7,0.1,1.4,0.1,2.1,0.1c0.1,0,0.3,0.1,0.6,0.3
			C82.8,71.1,83,71.2,83.2,71.3C83.2,71.2,83.2,71.2,83.2,71.3c0-0.4-0.1-0.7-0.3-0.9c-0.2-0.2-0.2-0.3,0-0.5c0.1-0.1,0.1-0.2,0-0.2
			c-0.1-0.1-0.2-0.2-0.3-0.2c-0.1,0-0.2,0-0.2-0.1c0-0.1,0-0.1,0.1-0.3c0.2-0.1,0.2-0.3,0.1-0.4c0,0-0.1-0.1-0.1-0.1l-0.3,0.1
			C81.9,69,81.5,69,81,69c-0.8-0.4-1.6-0.9-2.3-1.5l0.1-0.1c0.7,0.6,1.4,1.1,2.3,1.5c0.4,0,0.9,0,1.3-0.1l0.3-0.1
			c0.1,0,0.2,0,0.2,0.1c0.1,0.2,0,0.4-0.1,0.5c-0.1,0.1-0.1,0.1-0.1,0.2c0,0,0.1,0,0.1,0c0,0,0.3,0.1,0.4,0.2c0.1,0.1,0.1,0.2,0,0.3
			c-0.2,0.2-0.2,0.2,0,0.4C83.2,70.5,83.4,71.1,83.2,71.3C83.3,71.3,83.3,71.3,83.2,71.3z"/>
		<path d="M88.2,56.7c0.2-0.2,0.4-0.4,0.5-0.6c0.2-0.2,0.4-0.4,0.6-0.5c0.4-0.4,0.8-0.7,1.3-1L90,55.1c-0.2,0.2-0.4,0.3-0.6,0.5
			C89,56,88.6,56.4,88.2,56.7z"/>
		<path d="M88.1,57.3l1.2-0.4l1.2-0.4l1.2-0.4l1.2-0.4l-1.2,0.4l-1.2,0.4l-1.2,0.4L88.1,57.3z"/>
		<path d="M88.6,57.9l1.1-0.1l1.1-0.1l1.1-0.1l0.5,0c0.2,0,0.4,0,0.5-0.1c-0.3,0.1-0.7,0.1-1.1,0.2l-1.1,0.1l-1.1,0.1L88.6,57.9z"/>
		<path d="M75.6,60.8c-0.6,0.2-1.2,0.3-1.8,0.4c-0.3,0.1-0.6,0.1-0.9,0.1c-0.3,0-0.6,0.1-0.9,0c0.2,0,0.3,0,0.5,0l0.5-0.1l0.9-0.2
			C74.4,61,75,60.9,75.6,60.8z"/>
		<path d="M75.9,61.4c-0.5,0.3-1.1,0.6-1.6,0.9l-0.8,0.4c-0.3,0.1-0.6,0.3-0.8,0.4l0.8-0.4l0.8-0.4C74.8,62,75.4,61.7,75.9,61.4z"/>
		<path d="M76.5,62.2c-0.5,0.4-1.1,0.8-1.6,1.1L74,63.9l-0.4,0.3c-0.1,0.1-0.3,0.2-0.4,0.3c0.2-0.2,0.5-0.5,0.7-0.6l0.8-0.6
			C75.4,62.9,75.9,62.6,76.5,62.2z"/>
		<path class="st5" d="M87.3,46.4c-0.7-1.1-1.3-2.3-1.6-3.5c0-0.2-0.1-0.3-0.1-0.5c0-0.2,0-0.3-0.1-0.5c0-0.2,0-0.3,0-0.5
			c0-0.2,0-0.3,0-0.5c0-0.6,0.1-1.3,0.3-1.9c0.2-0.6,0.4-1.2,0.8-1.8l0.1-0.2l0.1-0.2c0.1-0.1,0.2-0.3,0.3-0.4l0.2-0.2l0.2-0.2
			l0.2-0.1c0.1-0.1,0.1-0.1,0.2-0.1c0.1-0.1,0.3-0.2,0.4-0.2c0.2-0.1,0.3-0.1,0.5-0.1c0.3-0.1,0.6-0.2,0.9-0.2
			c0.3-0.1,0.6-0.1,1-0.1c0.3,0,0.6,0,0.9,0.1c-0.3-0.1-0.6-0.1-0.9-0.1c-0.3,0-0.6,0-1,0.1c-0.3,0.1-0.6,0.1-1,0.2
			c-0.2,0-0.3,0.1-0.5,0.1c-0.1,0.1-0.3,0.1-0.4,0.2c-0.1,0-0.1,0.1-0.2,0.1l-0.2,0.1l-0.2,0.2l-0.2,0.2c-0.1,0.1-0.2,0.2-0.3,0.4
			l-0.1,0.2l-0.1,0.2c-0.3,0.6-0.6,1.1-0.7,1.8c-0.2,0.6-0.3,1.3-0.3,1.9c0,0.6,0,1.3,0.1,1.9c0.1,0.6,0.3,1.2,0.6,1.8
			C86.6,45.3,86.9,45.9,87.3,46.4z"/>
	</g>
</g>
<g id="cheese">
	
		<image style="overflow:visible;" width="256" height="171" xlink:href="../imgs/manchego.png"  transform="matrix(1.4576 0 0 1.4576 -39.0916 -1.3351)">
	</image>
</g>
</svg>
