<?xml version="1.0" encoding="utf-8"?>
<!-- Generator: Adobe Illustrator 21.1.0, SVG Export Plug-In . SVG Version: 6.00 Build 0)  -->
<svg version="1.1" id="Layer_1" xmlns="http://www.w3.org/2000/svg" xmlns:xlink="http://www.w3.org/1999/xlink" x="0px" y="0px"
	 viewBox="0 0 154.1 162" style="enable-background:new 0 0 154.1 162;" xml:space="preserve">
<style type="text/css">
	.st0{fill:#C4ABA3;}
	.st1{opacity:0.41;}
	.st2{fill:url(#SVGID_1_);}
	.st3{fill:url(#SVGID_2_);}
	.st4{fill:#967248;}
	.st5{fill:#231F20;}
	.st6{fill:#FDD4C8;}
	.st7{opacity:0.32;fill:url(#SVGID_3_);enable-background:new    ;}
	.st8{opacity:0.31;fill:url(#SVGID_4_);enable-background:new    ;}
	.st9{opacity:0.31;fill:url(#SVGID_5_);enable-background:new    ;}
	.st10{opacity:0.58;}
	.st11{fill:url(#SVGID_6_);}
	.st12{fill:url(#SVGID_7_);}
	.st13{fill:#FFFFFF;}
	.st14{opacity:0.49;}
	.st15{fill:#FCE6E0;}
	.st16{fill:#E0C799;}
</style>
<title>parm3</title>
<g id="parmigianoreggiano_-m">
	<g id="Layer_2">
		<path class="st0" d="M111.6,79.2c-2,0.3-3.8,1.7-4.5,3.6c-1.3,3.3-2,5.8,0.7,8.2c2,1.7,4.5,2.7,7.1,2.9c0,0-3.9,8.3-3.9,14.9
			c-0.1,6.6,0.4,13,6.2,14.5s8.9,1.8,11,1.8s9.1-0.2,12.2-3.7s2.5-9.7,2-13.7s-1.9-10.3-3.1-12.2l-1.3-1.9c0,0,3.9,0,5.5-2.1
			c1.5-2.1,2.6-3.9,2.5-6s-2.3-7-5.1-7.4c-2.3-0.4-4.7,0.5-6.1,2.4c-1.1,1.5-2.1,3.1-3,4.8c-1.6-0.4-3.3-0.7-5-0.7
			c-1.8,0.2-4.4,0.7-5.4,1.4c0,0-2.9-4.6-5-5.5S112.9,78.8,111.6,79.2z"/>
		<path d="M128,125.2c-1.8,0-4.6-0.2-11-1.8c-2.6-0.6-4.7-2.7-5.4-5.4c-0.8-3-1.1-6.1-0.9-9.1c0.1-6.2,3.6-14.1,3.9-14.8h-0.2
			c-2.5-0.3-4.9-1.3-6.8-2.9c-2.8-2.5-2-5.1-0.7-8.3c0.8-1.9,2.5-3.3,4.6-3.6c1.1-0.3,2.1,0.2,3.6,0.9l1.1,0.5c2,0.9,4.7,5.1,5,5.5
			c0.9-0.7,3.4-1.2,5.4-1.4c1.7,0,3.3,0.2,4.9,0.7c0.9-1.7,1.9-3.3,3-4.8c1.4-1.9,3.8-2.8,6.2-2.4c2.9,0.4,5.1,5.5,5.1,7.4
			s-0.9,3.7-2.6,6c-0.9,1-2,1.6-3.3,1.9c-0.7,0.2-1.4,0.2-2.1,0.3l1.2,1.9c1.3,2,2.6,8.3,3.1,12.2c0.4,3.2,1.2,10-2,13.7
			C139,122.8,135.8,125.2,128,125.2z M112.2,79.1c-0.2,0-0.5,0-0.7,0.1l0,0c-2,0.3-3.7,1.7-4.5,3.6c-1.3,3.1-2.1,5.7,0.7,8.2
			c1.9,1.6,4.3,2.6,6.8,2.9h0.3v0.1c0,0.1-3.9,8.4-3.9,14.9c0,3.2,0,6.5,0.9,9.1c0.7,2.6,2.7,4.7,5.3,5.3c6.4,1.6,9.2,1.8,11,1.8
			c1.9,0,3.8-0.2,5.7-0.5c3-0.6,5.1-1.7,6.4-3.2c3.2-3.7,2.4-10.4,2-13.7c-0.5-3.8-1.8-10.2-3.1-12.1l-1.3-2h0.1
			c0.7,0,1.5-0.1,2.2-0.3c1.3-0.2,2.4-0.9,3.3-1.8c1.6-2.2,2.6-4,2.5-5.9s-2.2-6.9-5.1-7.4c-2.3-0.4-4.7,0.5-6.1,2.3
			c-1.1,1.5-2.1,3.1-3,4.8l0,0c-1.6-0.4-3.3-0.7-4.9-0.7c-2,0.2-4.5,0.7-5.4,1.4l0,0c0,0-3-4.6-5-5.5l-1-0.4
			C114.3,79.5,113.3,79.2,112.2,79.1z"/>
		<g class="st1">
			
				<radialGradient id="SVGID_1_" cx="153.71" cy="128.44" r="5.6133" gradientTransform="matrix(1 0 0 1 -14.77 -42.91)" gradientUnits="userSpaceOnUse">
				<stop  offset="0.37" style="stop-color:#FF8EA5"/>
				<stop  offset="1" style="stop-color:#FFCBD6"/>
			</radialGradient>
			<path class="st2" d="M143.8,85.8c0,3.3-2.2,6.1-4.8,6.1c-1.7,0-3.7-0.8-4.3-2.5c-0.3-1.1-0.5-2.3-0.5-3.5c0-3.3,2.4-6.5,5.1-6.5
				c1,0,2,0.2,2.9,0.7C143.6,80.8,143.8,83.7,143.8,85.8z"/>
		</g>
		<g class="st1">
			
				<radialGradient id="SVGID_2_" cx="-376.63" cy="627.2" r="5.77" gradientTransform="matrix(0.6 -0.8 0.8 0.6 -162.04 -591.15)" gradientUnits="userSpaceOnUse">
				<stop  offset="0.37" style="stop-color:#FF8EA5"/>
				<stop  offset="1" style="stop-color:#FFCBD6"/>
			</radialGradient>
			<path class="st3" d="M116.4,82.4c1.9,1.8,2.7,4.3,2.3,6.8c-0.1,0.5-0.4,0.9-0.7,1.3c-1,1.3-2.9,2.4-4.6,2c-1.1-0.4-2.2-1-3.2-1.8
				c-2.7-2-3.8-5.9-2.1-8c0.6-0.8,1.4-1.5,2.3-1.9C112.7,79.9,114.7,81.1,116.4,82.4z"/>
		</g>
		<path class="st4" d="M130.8,107.1c-2.3-1.3-5.1-1.8-7.7-1.3c-1,0.6-1.5,1.8-1.4,2.9c0.1,2.1,0,5.3,1.9,6.6L130.8,107.1z"/>
		<path class="st5" d="M123.6,115.3L123.6,115.3c-1.7-1.2-1.8-4.1-1.9-6.2v-0.4c0-0.8,0.2-1.6,0.7-2.3c0.2-0.3,0.5-0.5,0.8-0.7l0,0
			c2.6-0.4,5.4,0.1,7.7,1.3l0,0L123.6,115.3z M123.2,105.7c-1,0.6-1.5,1.7-1.4,2.9v0.5c0.1,2.1,0.1,4.9,1.8,6.1l7.2-8.1
			C128.4,105.8,125.8,105.4,123.2,105.7L123.2,105.7z"/>
		<path class="st6" d="M133.4,124.6c0.9,0.7,1.9,1.2,3,1.3c1.4,0.1,2.3-1.1,2.1-1.6c-0.3-0.4-0.6-0.7-1-1
			C136.2,123.9,134.8,124.3,133.4,124.6z"/>
		<path d="M136.5,126L136.5,126c-1.2-0.2-2.2-0.6-3.1-1.4l0,0c1.4-0.3,2.7-0.7,4.1-1.3l0,0c0.4,0.3,0.7,0.6,1,1
			c0.1,0.2,0.1,0.5-0.1,0.7C137.9,125.7,137.2,126,136.5,126z M133.5,124.6c0.8,0.7,1.9,1.1,2.9,1.3h0.1c0.7,0,1.4-0.3,1.8-0.9
			c0.1-0.2,0.2-0.4,0.1-0.7c-0.3-0.4-0.6-0.7-1-1C136.2,123.9,134.8,124.3,133.5,124.6L133.5,124.6z"/>
		<path class="st6" d="M117.1,123.3c-0.5,0.2-0.8,0.8-0.9,1.3l0.4,0.3v0.6h0.4l0.4,0.4l0.6-0.1c1.3,0,2.5-0.6,3.3-1.6
			C119.8,124.1,118.4,123.7,117.1,123.3z"/>
		<path d="M117.4,126L117.4,126l-0.4-0.4h-0.4v-0.6l-0.4-0.3l0,0c0-0.6,0.4-1.1,0.9-1.3l0,0c1.4,0.4,2.8,0.8,4.2,1l0,0
			c-0.8,1-2,1.6-3.3,1.6L117.4,126z M116.6,125.5h0.4l0.4,0.4l0.6-0.1c1.3,0,2.5-0.6,3.3-1.5c-1.4-0.2-2.8-0.6-4.2-1
			c-0.5,0.2-0.8,0.7-0.9,1.3l0.4,0.3L116.6,125.5z"/>
		<path class="st6" d="M141.5,119.3c1.1,0.7,2.4,1.3,3.7,1.6c1.6,0.2,4.9,0.7,5.7,2.5s1.4,4.8-1.2,6.3s-6.9,1.3-8.2,1.5
			s-5.8,0.6-7,1.7s0.4,0.6,0.4,0.6c1.9-0.7,3.9-1,5.9-1c2.6,0.2,9.1,0.5,10.8-1.3s3-3.6,2.3-7.8s-6.5-4.7-6.5-4.7s-4.4-1.1-5-2.2
			L141.5,119.3z"/>
		<path d="M134.3,133.6c-0.1,0-0.2,0-0.2-0.1s0.1-0.3,0.4-0.7c0.9-0.9,3.8-1.2,5.7-1.5c0.6-0.1,1-0.1,1.3-0.2c0.5-0.1,1-0.1,1.6-0.1
			c1.9-0.1,4.7-0.3,6.6-1.4c2.9-1.7,1.7-5.2,1.2-6.3c-0.8-1.8-4.1-2.3-5.7-2.5l0,0c-1.3-0.3-2.6-0.9-3.7-1.6l0,0l0.9-2.9l0,0
			c0.8,0.8,1.7,1.3,2.8,1.5c1.2,0.4,2.2,0.7,2.3,0.7c1,0.1,2,0.4,3,0.8c1.8,0.6,3.1,2.1,3.5,4c0.7,4.2-0.6,5.9-2.3,7.8
			s-8.7,1.5-10.8,1.3c-1.3-0.1-2.6,0.1-3.9,0.4c-0.7,0.2-1.3,0.4-2,0.6C134.7,133.5,134.5,133.6,134.3,133.6z M141.6,119.3
			c1.1,0.7,2.4,1.3,3.7,1.6l0,0c1.6,0.2,4.9,0.7,5.7,2.5c0.5,1.1,1.7,4.6-1.2,6.3c-1.9,1.1-4.7,1.2-6.6,1.4c-0.5,0-1,0.1-1.6,0.1
			c-0.3,0.1-0.8,0.1-1.3,0.2c-1.9,0.3-4.7,0.6-5.6,1.5c-0.4,0.4-0.5,0.5-0.4,0.6c0.3,0,0.5,0,0.8-0.1c0.7-0.2,1.3-0.4,2-0.6
			c1.3-0.3,2.6-0.5,3.9-0.4c2.1,0.2,9,0.6,10.7-1.3s3-3.6,2.3-7.8c-0.4-1.8-1.7-3.3-3.5-3.9c-1-0.4-2-0.6-3-0.8
			c-0.2,0-4.3-1.1-5-2.2L141.6,119.3z"/>
		
			<radialGradient id="SVGID_3_" cx="158.8348" cy="167.91" r="9.3228" gradientTransform="matrix(1 0 0 1 -14.77 -42.91)" gradientUnits="userSpaceOnUse">
			<stop  offset="0.37" style="stop-color:#FBCAC7"/>
			<stop  offset="0.67" style="stop-color:#FBD3C7"/>
			<stop  offset="0.87" style="stop-color:#BDBDBD"/>
			<stop  offset="1" style="stop-color:#858585"/>
		</radialGradient>
		<path class="st7" d="M141.5,119.3c1.1,0.7,2.4,1.3,3.7,1.6c1.6,0.2,4.9,0.7,5.7,2.5s1.4,4.8-1.2,6.3s-6.9,1.3-8.2,1.5
			s-5.8,0.6-7,1.7s0.4,0.6,0.4,0.6c1.9-0.7,3.9-1,5.9-1c2.6,0.2,9.1,0.5,10.8-1.3s3-3.6,2.3-7.8s-6.5-4.7-6.5-4.7s-4.4-1.1-5-2.2
			L141.5,119.3z"/>
		
			<radialGradient id="SVGID_4_" cx="133.47" cy="167.56" r="2.04" gradientTransform="matrix(1 0 0 1 -14.77 -42.91)" gradientUnits="userSpaceOnUse">
			<stop  offset="0.33" style="stop-color:#FBB0C7"/>
			<stop  offset="1" style="stop-color:#858585"/>
		</radialGradient>
		<path class="st8" d="M117.1,123.3c-0.5,0.2-0.8,0.8-0.9,1.3l0.4,0.3v0.6h0.4l0.4,0.4l0.6-0.1c1.3,0,2.5-0.6,3.3-1.6
			C119.8,124.1,118.4,123.7,117.1,123.3z"/>
		
			<radialGradient id="SVGID_5_" cx="150.8009" cy="115.6" r="1.97" gradientTransform="matrix(1 0 0 -1 -14.77 155.09)" gradientUnits="userSpaceOnUse">
			<stop  offset="0.33" style="stop-color:#FBB0C7"/>
			<stop  offset="1" style="stop-color:#858585"/>
		</radialGradient>
		<path class="st9" d="M133.6,124.7c0.8,0.7,1.8,1.1,2.9,1.2c1.4,0.1,2.3-1.1,2.1-1.6c-0.2-0.4-0.5-0.7-0.9-0.9
			C136.3,124,135,124.5,133.6,124.7z"/>
		<path class="st5" d="M118.8,89.5c0-0.7,0-1.4-0.1-2.1c-0.1-0.7-0.2-1.4-0.4-2.1c-0.2-0.7-0.5-1.3-0.9-1.9
			c-0.2-0.3-0.5-0.5-0.7-0.8c-0.3-0.2-0.6-0.4-0.9-0.6c-0.6-0.4-1.2-0.7-1.9-1c-0.6-0.3-1.3-0.4-2-0.5c-0.7,0-1.4,0.2-2,0.6
			c-0.3,0.2-0.6,0.4-0.9,0.6c-0.3,0.2-0.5,0.5-0.7,0.8c0.2-0.3,0.5-0.5,0.7-0.8c0.3-0.3,0.6-0.5,0.9-0.7c0.6-0.4,1.3-0.6,2-0.6
			c0.7,0,1.4,0.2,2.1,0.4c0.7,0.3,1.3,0.6,1.9,1c0.3,0.2,0.6,0.4,0.9,0.6c0.3,0.2,0.5,0.5,0.7,0.8c0.4,0.6,0.7,1.2,0.9,1.9
			C118.8,86.6,118.9,88,118.8,89.5z"/>
		<path class="st5" d="M120.4,84.9c0.3,0.3,0.5,0.7,0.7,1c0.1,0.2,0.2,0.3,0.3,0.5c0.1,0.2,0.2,0.4,0.2,0.6c0-0.1-0.1-0.2-0.1-0.3
			l-0.1-0.3L121,86C120.8,85.6,120.6,85.3,120.4,84.9z"/>
		<path class="st5" d="M132.1,84.3c-0.1,0.3-0.3,0.6-0.4,0.9l-0.2,0.5c-0.1,0.2-0.1,0.3-0.2,0.5c0-0.2,0.1-0.3,0.1-0.5
			c0.1-0.2,0.1-0.3,0.2-0.5C131.7,84.9,131.9,84.6,132.1,84.3z"/>
		<path class="st5" d="M125.9,99.2c-0.3,0-0.7-0.2-0.9-0.5c-0.1-0.1-0.1-0.2-0.1-0.4c0.1-0.1,0.2-0.2,0.3-0.2h1.2
			c0.2,0,0.3,0,0.4,0.1c0,0.1,0,0.2,0,0.3l0,0c-0.2,0.2-0.5,0.4-0.7,0.6C126.1,99.2,126,99.2,125.9,99.2z M125.3,98.2
			c-0.1,0-0.2,0.1-0.3,0.2c0,0.1,0,0.2,0.1,0.3c0.3,0.4,0.7,0.6,1.1,0.4c0.2-0.2,0.5-0.4,0.7-0.6c0,0,0.1-0.2,0-0.3
			c-0.1-0.1-0.2-0.1-0.3-0.1L125.3,98.2L125.3,98.2z"/>
		<g class="st10">
			
				<radialGradient id="SVGID_6_" cx="140.72" cy="89.58" r="0.78" gradientTransform="matrix(1 0 0 -1 -14.77 155.09)" gradientUnits="userSpaceOnUse">
				<stop  offset="0.37" style="stop-color:#FF8EA5"/>
				<stop  offset="1" style="stop-color:#FFCBD6"/>
			</radialGradient>
			<path class="st11" d="M125.3,98.2c-0.1,0-0.5,0.2-0.2,0.5s0.8,0.6,1.1,0.4c0.2-0.2,0.5-0.4,0.7-0.6c0,0,0.2-0.4-0.3-0.4
				S125.4,98.2,125.3,98.2z"/>
			<path class="st5" d="M125.9,99.2c-0.3,0-0.7-0.2-0.9-0.5c-0.1-0.1-0.1-0.2-0.1-0.4c0.1-0.1,0.2-0.2,0.3-0.2h1.2
				c0.2,0,0.3,0,0.4,0.1c0,0.1,0,0.2,0,0.3l0,0c-0.2,0.2-0.5,0.4-0.7,0.6C126.1,99.2,126,99.2,125.9,99.2z M125.3,98.2
				c-0.1,0-0.2,0.1-0.3,0.2c0,0.1,0,0.2,0.1,0.3c0.3,0.4,0.7,0.6,1.1,0.4c0.2-0.2,0.5-0.4,0.7-0.6c0,0,0.1-0.2,0-0.3
				c-0.1-0.1-0.2-0.1-0.3-0.1L125.3,98.2L125.3,98.2z"/>
		</g>
		
			<radialGradient id="SVGID_7_" cx="140.64" cy="142.63" r="0.37" gradientTransform="matrix(1 0 0 1 -14.77 -42.91)" gradientUnits="userSpaceOnUse">
			<stop  offset="0.37" style="stop-color:#FF6FA5"/>
			<stop  offset="1" style="stop-color:#FFCBD6"/>
		</radialGradient>
		<path class="st12" d="M125.9,99.2c0,0.3,0,0.7,0,1"/>
		<path class="st5" d="M125.9,99.2c0,0.3,0,0.7,0,1c0-0.2-0.1-0.3-0.1-0.5C125.8,99.5,125.9,99.3,125.9,99.2z"/>
		<ellipse class="st5" cx="119.8" cy="94.1" rx="1" ry="1.1"/>
		<ellipse transform="matrix(0.866 -0.5 0.5 0.866 -30.8028 72.6413)" class="st13" cx="120.1" cy="93.8" rx="0.2" ry="0.2"/>
		<ellipse transform="matrix(0.866 -0.5 0.5 0.866 -30.6308 72.5076)" class="st13" cx="120" cy="93.4" rx="0.1" ry="0.1"/>
		<ellipse class="st5" cx="132.6" cy="94.1" rx="1" ry="1.1"/>
		<ellipse transform="matrix(0.866 -0.5 0.5 0.866 -29.0766 79.0835)" class="st13" cx="133" cy="93.8" rx="0.2" ry="0.2"/>
		<ellipse transform="matrix(0.867 -0.4983 0.4983 0.867 -28.97 78.9307)" class="st13" cx="133.4" cy="93.7" rx="0.1" ry="0.1"/>
		<g class="st14">
			<ellipse class="st15" cx="131.7" cy="100.2" rx="2.7" ry="2"/>
		</g>
		<g class="st14">
			<ellipse class="st15" cx="120.4" cy="99.9" rx="2.7" ry="2"/>
		</g>
		<path class="st16" d="M130.8,107.1c0,0-6.8-0.9-7.5,0.2c-0.4,0.8-0.7,1.7-0.7,2.6c0,0,0.2,4.5,1,5.4s5.8-0.5,5.8-0.5
			c-0.3-0.8,0.1-1.7,0.9-2c0.2-0.1,0.5-0.1,0.7-0.1L130.8,107.1z"/>
		<path class="st5" d="M124.8,115.6c-0.4,0.1-0.9-0.1-1.2-0.3c-0.9-0.9-1-5.2-1-5.4c0.1-0.9,0.3-1.8,0.7-2.6
			c0.7-1.2,7.3-0.3,7.6-0.2l0,0l0.3,5.6l0,0c-0.5-0.1-1,0.1-1.4,0.5c-0.3,0.5-0.4,1-0.2,1.5l0,0C128,115.1,126.4,115.5,124.8,115.6z
			 M126,106.7c-1.3,0-2.4,0.1-2.6,0.6c-0.4,0.8-0.7,1.7-0.7,2.6c0,0,0.2,4.5,1,5.4s5.3-0.4,5.7-0.5c-0.1-0.5,0-1.1,0.3-1.6
			c0.4-0.4,0.9-0.6,1.4-0.6l0,0l-0.3-5.5C129.2,106.9,127.6,106.8,126,106.7L126,106.7z"/>
		<path class="st0" d="M135.1,108.4c-0.4,0.4-0.7,0.7-1.1,1c-0.7,0.4-1.6,0.7-2.5,0.7c-0.3,0-0.5,0.4-1.1,0.4s0-0.9,0-0.9
			s-0.4,0.3-0.7,0c-0.2-0.3,0.8-0.6,0.5-0.6c-0.3,0-0.3-0.5-0.1-0.6c0.5-0.2,1-0.4,1.5-0.5c0.7-0.4,1.3-0.9,1.7-1.6L135.1,108.4z"/>
		<path d="M130.4,110.6c-0.1,0-0.2,0-0.3-0.1c-0.1-0.2,0-0.5,0.1-0.7c-0.2,0.1-0.4,0.1-0.6-0.1c0-0.1,0-0.1,0-0.2
			c0-0.2,0.2-0.3,0.4-0.4l0.1-0.1l0,0c-0.1,0-0.3-0.1-0.3-0.2c0-0.2,0-0.3,0.1-0.4c0.2-0.1,0.3-0.2,0.5-0.2c0.3-0.1,0.7-0.2,1-0.3
			c0.7-0.4,1.3-1,1.7-1.6h0.1c-0.5,0.7-1.1,1.2-1.8,1.6c-0.3,0.1-0.7,0.2-1,0.3c-0.2,0-0.3,0.1-0.5,0.2c-0.1,0.1-0.1,0.2-0.1,0.4
			c0,0.1,0.1,0.2,0.2,0.2c0,0,0.1,0,0.1,0.1s-0.1,0.1-0.2,0.2c-0.1,0.1-0.4,0.2-0.4,0.3c0,0,0,0.1,0,0.1c0.2,0.3,0.6,0,0.6,0
			l0.2-0.1l-0.1,0.2c-0.1,0.2-0.3,0.6-0.2,0.7c0,0.1,0.1,0.1,0.2,0.1c0.2,0,0.5-0.1,0.6-0.2c0.1-0.1,0.3-0.2,0.4-0.2
			c0.9,0,1.7-0.3,2.4-0.7c0.4-0.3,0.8-0.6,1.2-1l0.1,0.1c-0.4,0.4-0.7,0.7-1.1,1c-0.8,0.4-1.6,0.7-2.5,0.7c-0.1,0-0.3,0.1-0.4,0.2
			C130.9,110.5,130.7,110.6,130.4,110.6z"/>
		<path class="st0" d="M119,109c0.4,0.3,0.8,0.6,1.2,0.9c0.6,0.3,1.3,0.5,2,0.7c0.2,0,0.6,0.7,0.9,0.9s0.2-0.7,0.1-0.9
			c-0.1-0.2-0.1-0.3,0.1-0.4c0.3-0.2,0-0.5-0.1-0.5s-0.3-0.1,0-0.3c0.3-0.2,0.3-0.4,0.1-0.5c-0.5,0-1.1-0.1-1.6-0.3
			c-0.7-0.6-1.2-1.3-1.7-2.1L119,109z"/>
		<path d="M123.1,111.6L123.1,111.6c-0.3-0.1-0.4-0.3-0.6-0.5c-0.2-0.2-0.3-0.4-0.4-0.4c-0.7-0.2-1.4-0.4-2-0.7
			c-0.4-0.3-0.8-0.5-1.2-0.9l0.1-0.1c0.4,0.3,0.8,0.6,1.2,0.9c0.6,0.3,1.3,0.5,2,0.7c0.1,0,0.3,0.2,0.5,0.4
			C122.8,111.2,122.9,111.4,123.1,111.6L123.1,111.6c0.2-0.3,0.2-0.7,0-0.9c-0.1-0.2-0.1-0.3,0.1-0.5c0.1,0,0.1-0.1,0.1-0.2
			c0-0.1-0.1-0.2-0.2-0.2c-0.1,0-0.2-0.1-0.2-0.1c0-0.1,0-0.1,0.2-0.2s0.2-0.2,0.2-0.3c0,0,0-0.1-0.1-0.1h-0.3
			c-0.5,0-0.9-0.1-1.3-0.3c-0.7-0.6-1.3-1.3-1.8-2.1h0.1c0.5,0.8,1,1.5,1.7,2.1c0.4,0.2,0.8,0.2,1.3,0.3h0.3c0.1,0,0.1,0.1,0.2,0.2
			c0,0.2-0.1,0.3-0.3,0.4c-0.1,0.1-0.1,0.1-0.1,0.1c0,0,0.1,0.1,0.1,0.1c0.1,0.1,0.2,0.2,0.3,0.3c0,0.1,0,0.2-0.1,0.3
			c-0.2,0.1-0.2,0.2-0.1,0.4c0.1,0.2,0.2,0.8,0,0.9C123.2,111.6,123.2,111.6,123.1,111.6z"/>
		<path d="M132.3,99.2c0.2-0.2,0.5-0.3,0.7-0.4l0.7-0.3c0.5-0.2,1-0.4,1.5-0.5l-0.8,0.3l-0.7,0.3L132.3,99.2z"/>
		<path d="M132,99.7l1.2-0.1l1.2-0.1h2.5l-1.2,0.1l-1.2,0.1H132z"/>
		<path d="M132.3,100.4l1.1,0.2l1.1,0.2l1,0.3l0.5,0.1c0.2,0,0.4,0.1,0.5,0.1c-0.4,0-0.7-0.1-1.1-0.1l-1.1-0.2l-1-0.3L132.3,100.4z"
			/>
		<path d="M119,99.2c-0.6,0-1.2-0.1-1.8-0.2c-0.6-0.1-1.2-0.2-1.8-0.4c0.1,0,0.3,0.1,0.4,0.1l0.4,0.1l0.9,0.1L119,99.2z"/>
		<path d="M119.2,99.9c-0.6,0.1-1.2,0.2-1.8,0.3l-0.9,0.1c-0.3,0-0.6,0.1-0.9,0.1l0.9-0.2l0.9-0.2C118,100.1,118.6,100,119.2,99.9z"
			/>
		<path d="M119.4,100.9c-0.6,0.2-1.2,0.4-1.9,0.6l-0.9,0.3l-0.5,0.1c-0.2,0-0.3,0.1-0.5,0.2c0.3-0.2,0.6-0.3,0.9-0.4l0.9-0.3
			C118.2,101.2,118.8,101,119.4,100.9z"/>
		<path class="st5" d="M134.5,89.1c-0.4-1.2-0.5-2.5-0.4-3.8c0-0.2,0-0.3,0.1-0.5c0-0.2,0.1-0.3,0.1-0.5c0-0.2,0.1-0.3,0.1-0.5
			c0-0.2,0.1-0.3,0.2-0.4c0.2-0.6,0.5-1.2,0.9-1.7c0.3-0.5,0.8-1,1.3-1.5l0.2-0.1l0.2-0.2c0.1-0.1,0.3-0.2,0.4-0.3l0.2-0.1l0.2-0.1
			l0.2-0.1l0.2-0.1c0.2,0,0.3-0.1,0.5-0.1c0.2,0,0.3,0,0.5,0c0.3,0,0.7,0,1,0.1c0.3,0,0.6,0.1,0.9,0.2c0.3,0.1,0.6,0.2,0.9,0.4
			c-0.3-0.2-0.6-0.3-0.9-0.4c-0.3-0.1-0.6-0.2-0.9-0.2c-0.3,0-0.7-0.1-1-0.1c-0.2,0-0.3,0-0.5,0c-0.2,0-0.3,0-0.5,0.1l-0.2,0.1
			l-0.2,0.1l-0.2,0.1l-0.2,0.1c-0.1,0.1-0.3,0.2-0.4,0.3l-0.2,0.1l-0.2,0.2c-0.5,0.4-0.9,0.9-1.2,1.5c-0.3,0.5-0.6,1.1-0.9,1.7
			c-0.2,0.6-0.4,1.2-0.4,1.8c-0.1,0.6-0.1,1.3,0,1.9C134.3,87.8,134.4,88.5,134.5,89.1z"/>
	</g>
</g>
<g id="parmigianoreggiano">
	<g id="Layer_1_1_">
		
			<image style="overflow:visible;enable-background:new    ;" width="158" height="181" xlink:href="28D078191508277C.png"  transform="matrix(0.8886 0 0 0.895 0 0)">
		</image>
	</g>
</g>
</svg>
