<svg id="Layer_1" data-name="Layer 1" xmlns="http://www.w3.org/2000/svg" xmlns:xlink="http://www.w3.org/1999/xlink" viewBox="0 0 257.88 185.18"><defs><style>.cls-1{fill:none;}.cls-2{clip-path:url(#clip-path);}.cls-3{fill:#ec008c;}.cls-4{fill:#fff;}</style><clipPath id="clip-path" transform="translate(-7.4 -8.29)"><rect class="cls-1" x="7.4" y="8.29" width="257.88" height="185.17"/></clipPath></defs><title>rori-kotch-logo</title><g class="cls-2"><path class="cls-3" d="M38.85,39.19q1.09-3.66,1.9-7.39c20.91,6.87.88,20.32,8.34,31.09,8.54,12.33,39.94-10.73,45.43-20C110,16.6,62.58,22.75,51.68,25.57,37,29.37,23.52,35.69,12.5,45.07c-25-25,49.29-36.19,62.77-36.75C93.1,7.58,107.94,19,108,37.37,108.15,61.64,75.3,69,57.94,74.65c7.69,10,16.41,17.92,27.94,23.18,6,2.72,28.45,7.32,11.11,14.83-28.31,12.27-36.42-38.94-57.38-38a147.35,147.35,0,0,0-7.21,28.82C18.49,100.33,25,84,27,74.66c0.93-4.25-4.29-6.09-3.58-11,1.33-9.23,8.11-7,11.05-12.89" transform="translate(-7.4 -8.29)"/><path class="cls-3" d="M153.53,92.91a7.19,7.19,0,0,0-3,1.11c-1.43,1-8.21,3.47-12.32,2.57,8.38-9.53,15.25-26.83,7.92-38.85C141,49.35,129.94,52,122.17,54.17c-12.42,3.53-18.78,17.72-20.34,29.61-1.19,9.13,1.45,22.63,11.9,25.16a18.23,18.23,0,0,0,17.87-6c5.59-1.65,11.46,0,16.76-3.18,2.27-1.38,4.77-3.12,6.05-5.53C155.06,93,155,92.46,153.53,92.91ZM117.71,73.33c-0.16,9.92,1.41,19.55,9.35,26.29C110.65,116.83,108.08,84.17,117.71,73.33Zm14,21.49c-8.23-7.45-4.93-23.14,4.72-28.31C139.54,76.8,137.15,85.73,131.7,94.82Z" transform="translate(-7.4 -8.29)"/><path class="cls-3" d="M157.37,82c1.48-3.34,1.28-5.45-1.08-8.42-2.09-2.63-4.42-6.2-4.79-9.6-0.55-5,5.17-4.5,8.32-3.74,2,0.49,4.82,1,6.43,2.4s-1.11,2.48-1.18,2.38c1.28,2,6.71,1.74,8.65,1.73,2.1,0,4.68.32,6.73-.1,1.5-.3,2.07-2.46,2.62-3.66,1.19-2.58,1.57-5.75,3.2-8.11,1.32-1.91,4.51,1,5.61,1.94,2.15,1.81,4.64,4.26,5.1,7.16,0.59,3.67-1.67,7.29-3.48,10.29a126.27,126.27,0,0,0-11.28,23.51c-1.2,3.47-2.48,7.29-1.9,11,0.31,2,1.42,4.78,3.85,4.62,4.05-.27,7.55-5.66,9.63-8.6a54.74,54.74,0,0,0,7.32-14.51c1.42-4.2,2.57-8.49,4.13-12.64,1.65-4.38,3.69-8.61,5.39-13,0.53-1.34,1-2.7,1.46-4.07,5.54,2.52,12.21,7.88,9.58,14.69-1.54,4-4.17,7.52-6.11,11.31a77.33,77.33,0,0,0-4.78,10.78c-1.31,4-3.1,9.53-1.63,13.68,2.21,6.22,11.79-1.45,14.07-4,3.21-3.59,5.16-8.19,8.5-11.69,1.07-1.12,2.28-1.38,2.06.65-0.27,2.51-1.56,5-2.61,7.21-3.3,7.13-8.73,14.53-16.9,16.22-7.59,1.57-14.45-3.89-15.55-11.41a11.53,11.53,0,0,1,0-3.22c-4.25,6.66-13.76,20.46-22.81,12.68-5-4.32-6.17-11.05-5.4-17.35a77.36,77.36,0,0,1,5.83-22.26,45.22,45.22,0,0,1-10.45.46c-0.59-.06-2.42-0.46-2.8.22l-3.28,5.86c-1.45,2.6-2.61,5.35-4.13,7.91a24.79,24.79,0,0,1-1.64,2.44c-0.4.45-.29-0.09-0.89,0.23-1.56.83-2.55,2.71-3.81,3.92,0.45-1.12-.9-1.55-0.47-2.77a20,20,0,0,1,2-2.65,58.17,58.17,0,0,0,3.92-6.07c1-2.34,1.43-3,2.58-5.5" transform="translate(-7.4 -8.29)"/><path class="cls-3" d="M221.62,37c1.36-2.95,4.22-4,7.56-3.37,4,0.81,7.29,5.09,5.09,9.19-2.05,3.8-6.19,6.94-10.59,4.88-3.41-1.6-3.28-8-2.05-10.7" transform="translate(-7.4 -8.29)"/><path class="cls-3" d="M264.91,168.91c-0.3-.1-15,23.48-14.65,8.8,0.28-12.36,19.87-27.51,5-36.74-2.93,8.74-10.45,15.9-15.77,23.39l-10.19,14.36c0.83-9,5.23-17.45,8.61-25.69,4.34-8.69,17.48-26.28,1.46-29.93-2.93,13.24-8.41,8.25-20.67,8.56-8,.2-15.92,1.8-23.82,3.09,3-6.38-1.8-10.38-7.55-11.79-1.31,10.45-4.23,15.8-14.7,11.52,0.7,4.34,8.58,5.65,7.24,9.21-2,5.28-4.24,10.51-5.6,16-1.3,5.24-2.29,10.56-3.21,15.88-0.53,3.09-7.67,2.72-10.08,2.35,5.59-7.69,9-17.09,5.22-26.34a8.23,8.23,0,0,0-10.6-4.29c-4.36,1.7-2.1.06-5.88-.89-1.36-.34-6.12,4.87-6.73,5.58a36.41,36.41,0,0,0-7.17,14.36c-1.88,7-.06,13.52,4.77,18.87-13,9.64-27.59.93-37.44-9.27-0.4-.42-3.5-3.5-2-4.11a128.63,128.63,0,0,0,15.65-7.5,105.84,105.84,0,0,0,28.91-23.62c4.72-5.6,7.58-16-1.75-19-4.14-1.3-7.13,11.88-9.55,15.24-9.52,13.24-22.27,22.55-37.13,29,3.23-9.28,7.39-18.19,11.38-27.16,2.19-4.93,5.35-9.1,1.83-14-7.57-4.64-6.15-3-8.92,4.29C97.71,139.24,74.8,186.43,84.66,192a3.72,3.72,0,0,0,3.84,1.42c-0.53-7,3-13.52,5.43-19.83,12.09,15.57,30.88,26.95,48.66,13a3.12,3.12,0,0,1,2.77-.71c1.78,0.21,4.55.94,5.87,0.19a14.74,14.74,0,0,0,3.4-2,16.94,16.94,0,0,0,2.16-2.64c4.25,2.55,10.48-.06,14.09-2.43,2.86,13.41,15.62,7.08,20.53-.53,8.24,12.35,22.74,9.18,31.12-1.46,0,2.6-.5,7.2,2.13,8.76,3.46,2.05,6.48.48,8.23-2.66,4.78-8.54,9.55-17,14.53-25.44-2.6,7.9-7,18.08-2,26,2.24,3.55,5.74,5.58,9.52,2.91C256.53,185.42,267.4,169.74,264.91,168.91Zm-123.55,4.56c0,0.55-.09.52-0.15-1.23,0.09-1.39.14-1.58,0.17-1.24,1-5.22,5.94-14.23,9.19-17.39-0.83,5.54-.28,18.1,1.56,23.16C154.35,182.85,142.8,180.7,141.36,173.47Zm16.71,1.31c-1-.64-1.34-3.2-1.83-4.28-0.54-2.24-.54-2.49-0.39-2.07-0.75-5.43.2-12.67,5.68-14.82C164.43,160.07,161.64,169.14,158.07,174.78Zm65.86-4.51c-3.81,10.49-25.2,18.24-28.56,3.44-1.54-6.8,4.89-13.41,10.48-16.16,8.68-4.27,5.29,5,2.45,9.19,13.25,8.28,19.18-15.5,6.29-20.08-15.16-5.38-25.66,16.15-24.13,27.85-0.16.25-.32,0.47-0.46,0.66-5.59,7.82-14.67,9-11.38-3.55,2.63-10,8-19.46,12.39-28.79,1.47-3.1,11.16-2.33,14.7-2.29,8.94,0.1,18.23-.4,27,1.82C229.41,151.56,227.24,161.2,223.94,170.28Z" transform="translate(-7.4 -8.29)"/><path class="cls-4" d="M190.48,174.52c-0.15.23-.3,0.45-0.46,0.66C190.16,175,190.31,174.77,190.48,174.52Z" transform="translate(-7.4 -8.29)"/><path class="cls-4" d="M190,175.18c0.16-.22.31-0.44,0.46-0.66C189.64,168.16,186.32,180.27,190,175.18Z" transform="translate(-7.4 -8.29)"/><path class="cls-4" d="M156.24,170.5c-0.16-.65-0.29-1.34-0.39-2.07C155.7,168,155.7,168.27,156.24,170.5Z" transform="translate(-7.4 -8.29)"/><path class="cls-4" d="M155.85,168.43c0.1,0.73.23,1.42,0.39,2.07C156.62,171.15,156.08,169.05,155.85,168.43Z" transform="translate(-7.4 -8.29)"/><path class="cls-4" d="M141.36,173.47a7.54,7.54,0,0,1-.15-1.23C141.27,174,141.32,174,141.36,173.47Z" transform="translate(-7.4 -8.29)"/><path class="cls-4" d="M141.21,172.25a10.21,10.21,0,0,1,.17-1.24C141.35,170.67,141.3,170.85,141.21,172.25Z" transform="translate(-7.4 -8.29)"/><path class="cls-4" d="M141.38,171a10.21,10.21,0,0,0-.17,1.24,7.54,7.54,0,0,0,.15,1.23C141.4,172.84,141.41,171.45,141.38,171Z" transform="translate(-7.4 -8.29)"/></g></svg>